<svg width="599" height="482" viewBox="0 0 599 482" fill="none" xmlns="http://www.w3.org/2000/svg">
<path d="M222.039 307.621H204.336V338.737H161.455V307.621H97.3521V275.733L164.204 177.985H204.338V275.184H222.04V307.621H222.039ZM161.455 275.184V256.492C161.455 252.974 161.582 248.229 161.84 242.253C162.095 236.28 162.296 233.145 162.445 232.852H161.235C158.743 238.497 155.92 243.776 152.769 248.686L134.956 275.184H161.455Z" fill="#FF7A00"/>
<path d="M349.474 258.581C349.474 287.023 344.708 307.859 335.181 321.091C325.652 334.322 311.063 340.936 291.421 340.936C272.215 340.936 257.738 334.029 247.989 320.209C238.239 306.394 233.365 285.848 233.365 258.579C233.365 229.991 238.129 209.029 247.659 195.686C257.187 182.346 271.776 175.675 291.421 175.675C310.553 175.675 325.011 182.621 334.796 196.511C344.582 210.404 349.474 231.092 349.474 258.581ZM276.575 258.581C276.575 276.761 277.711 289.259 279.984 296.075C282.255 302.892 286.068 306.301 291.419 306.301C296.843 306.301 300.672 302.782 302.909 295.744C305.144 288.708 306.262 276.321 306.262 258.581C306.262 240.769 305.126 228.288 302.855 221.142C300.581 213.994 296.769 210.422 291.419 210.422C286.068 210.422 282.255 213.869 279.984 220.757C277.711 227.648 276.575 240.255 276.575 258.581Z" fill="#FF7A00"/>
<path d="M485.925 307.621H468.224V338.737H425.342V307.621H361.239V275.733L428.091 177.985H468.224V275.184H485.925V307.621ZM425.342 275.184V256.492C425.342 252.974 425.469 248.229 425.727 242.253C425.982 236.28 426.183 233.145 426.332 232.852H425.122C422.63 238.497 419.805 243.776 416.655 248.686L398.844 275.184H425.342Z" fill="#FF7A00"/>
<path d="M32.9204 213.653H97.9092" stroke="#091242" stroke-width="2.91995" stroke-miterlimit="10" stroke-linecap="round" stroke-linejoin="round"/>
<path d="M113.509 213.653H127.382" stroke="#091242" stroke-width="2.91995" stroke-miterlimit="10" stroke-linecap="round" stroke-linejoin="round"/>
<path d="M21.1519 195.362H137.495" stroke="#091242" stroke-width="2.91995" stroke-miterlimit="10" stroke-linecap="round" stroke-linejoin="round"/>
<path d="M11.5761 195.362H2" stroke="#091242" stroke-width="2.91995" stroke-miterlimit="10" stroke-linecap="round" stroke-linejoin="round"/>
<path d="M21.1519 177.985H59.7776" stroke="#091242" stroke-width="2.91995" stroke-miterlimit="10" stroke-linecap="round" stroke-linejoin="round"/>
<path d="M70.1196 177.985H151.239" stroke="#091242" stroke-width="2.91995" stroke-miterlimit="10" stroke-linecap="round" stroke-linejoin="round"/>
<path d="M492.298 358.77H561.843" stroke="#091242" stroke-width="2.91995" stroke-miterlimit="10" stroke-linecap="round" stroke-linejoin="round"/>
<path d="M573.154 358.77H583.214" stroke="#091242" stroke-width="2.91995" stroke-miterlimit="10" stroke-linecap="round" stroke-linejoin="round"/>
<path d="M506.187 340.478H597.326" stroke="#091242" stroke-width="2.91995" stroke-miterlimit="10" stroke-linecap="round" stroke-linejoin="round"/>
<path d="M499.241 340.478H492.298" stroke="#091242" stroke-width="2.91995" stroke-miterlimit="10" stroke-linecap="round" stroke-linejoin="round"/>
<path d="M492.298 323.101H534.193" stroke="#091242" stroke-width="2.91995" stroke-miterlimit="10" stroke-linecap="round" stroke-linejoin="round"/>
<path d="M541.692 323.101H573.154" stroke="#091242" stroke-width="2.91995" stroke-miterlimit="10" stroke-linecap="round" stroke-linejoin="round"/>
<path d="M230.361 307.007H212.659V338.123H169.778V307.007H105.675V275.119L172.527 177.371H212.66V274.57H230.363L230.361 307.007ZM169.777 274.57V255.878C169.777 252.359 169.903 247.615 170.161 241.638C170.417 235.666 170.618 232.531 170.766 232.238H169.557C167.064 237.883 164.241 243.161 161.09 248.072L143.277 274.57H169.777Z" stroke="#091242" stroke-width="4.41138" stroke-miterlimit="10"/>
<path d="M357.796 257.966C357.796 286.409 353.03 307.244 343.502 320.476C333.973 333.707 319.384 340.321 299.742 340.321C280.536 340.321 266.059 333.414 256.31 319.595C246.56 305.78 241.686 285.234 241.686 257.965C241.686 229.377 246.45 208.414 255.979 195.072C265.507 181.732 280.096 175.061 299.741 175.061C318.873 175.061 333.331 182.007 343.116 195.897C352.904 209.79 357.796 230.479 357.796 257.966ZM284.898 257.966C284.898 276.147 286.033 288.644 288.307 295.461C290.578 302.277 294.39 305.686 299.742 305.686C305.165 305.686 308.994 302.168 311.231 295.13C313.467 288.093 314.585 275.707 314.585 257.965C314.585 240.154 313.448 227.672 311.177 220.526C308.904 213.379 305.091 209.806 299.742 209.806C294.39 209.806 290.578 213.253 288.307 220.141C286.033 227.033 284.898 239.642 284.898 257.966Z" stroke="#091242" stroke-width="4.41138" stroke-miterlimit="10"/>
<path d="M494.248 307.007H476.546V338.123H433.665V307.007H369.562V275.119L436.413 177.371H476.547V274.57H494.249L494.248 307.007ZM433.665 274.57V255.878C433.665 252.359 433.792 247.615 434.049 241.638C434.305 235.666 434.506 232.531 434.654 232.238H433.445C430.952 237.883 428.128 243.161 424.978 248.072L407.167 274.57H433.665Z" stroke="#091242" stroke-width="4.41138" stroke-miterlimit="10"/>
<path d="M219.106 407.353V370.841H241.142V374.763H223.528V387.1H240.001V391.022H223.528V403.431H241.427V407.353H219.106ZM249.111 407.353V370.841H261.448C264.3 370.841 266.642 371.329 268.472 372.303C270.302 373.266 271.657 374.591 272.537 376.279C273.416 377.966 273.856 379.886 273.856 382.037C273.856 384.188 273.416 386.096 272.537 387.76C271.657 389.424 270.308 390.731 268.49 391.682C266.671 392.621 264.348 393.09 261.519 393.09H251.535V389.097H261.376C263.326 389.097 264.894 388.812 266.083 388.241C267.283 387.671 268.151 386.863 268.686 385.817C269.233 384.759 269.506 383.499 269.506 382.037C269.506 380.575 269.233 379.298 268.686 378.204C268.139 377.111 267.265 376.267 266.065 375.673C264.865 375.066 263.278 374.763 261.305 374.763H253.532V407.353H249.111ZM266.297 390.951L275.282 407.353H270.148L261.305 390.951H266.297ZM281.223 407.353V370.841H293.56C296.413 370.841 298.754 371.329 300.584 372.303C302.415 373.266 303.77 374.591 304.649 376.279C305.529 377.966 305.968 379.886 305.968 382.037C305.968 384.188 305.529 386.096 304.649 387.76C303.77 389.424 302.421 390.731 300.602 391.682C298.784 392.621 296.46 393.09 293.631 393.09H283.648V389.097H293.489C295.438 389.097 297.007 388.812 298.195 388.241C299.396 387.671 300.263 386.863 300.798 385.817C301.345 384.759 301.618 383.499 301.618 382.037C301.618 380.575 301.345 379.298 300.798 378.204C300.252 377.111 299.378 376.267 298.178 375.673C296.977 375.066 295.39 374.763 293.418 374.763H285.645V407.353H281.223ZM298.409 390.951L307.395 407.353H302.26L293.418 390.951H298.409ZM344.142 389.097C344.142 392.948 343.447 396.276 342.057 399.081C340.666 401.886 338.758 404.049 336.334 405.57C333.909 407.091 331.14 407.852 328.026 407.852C324.912 407.852 322.143 407.091 319.718 405.57C317.294 404.049 315.386 401.886 313.995 399.081C312.605 396.276 311.91 392.948 311.91 389.097C311.91 385.246 312.605 381.918 313.995 379.113C315.386 376.308 317.294 374.145 319.718 372.624C322.143 371.103 324.912 370.342 328.026 370.342C331.14 370.342 333.909 371.103 336.334 372.624C338.758 374.145 340.666 376.308 342.057 379.113C343.447 381.918 344.142 385.246 344.142 389.097ZM339.864 389.097C339.864 385.936 339.335 383.267 338.277 381.092C337.231 378.917 335.811 377.271 334.016 376.154C332.233 375.037 330.237 374.478 328.026 374.478C325.815 374.478 323.813 375.037 322.018 376.154C320.235 377.271 318.815 378.917 317.757 381.092C316.711 383.267 316.188 385.936 316.188 389.097C316.188 392.258 316.711 394.927 317.757 397.102C318.815 399.277 320.235 400.923 322.018 402.04C323.813 403.157 325.815 403.716 328.026 403.716C330.237 403.716 332.233 403.157 334.016 402.04C335.811 400.923 337.231 399.277 338.277 397.102C339.335 394.927 339.864 392.258 339.864 389.097ZM351.577 407.353V370.841H363.914C366.766 370.841 369.107 371.329 370.938 372.303C372.768 373.266 374.123 374.591 375.002 376.279C375.882 377.966 376.322 379.886 376.322 382.037C376.322 384.188 375.882 386.096 375.002 387.76C374.123 389.424 372.774 390.731 370.956 391.682C369.137 392.621 366.814 393.09 363.985 393.09H354.001V389.097H363.842C365.791 389.097 367.36 388.812 368.549 388.241C369.749 387.671 370.617 386.863 371.152 385.817C371.698 384.759 371.972 383.499 371.972 382.037C371.972 380.575 371.698 379.298 371.152 378.204C370.605 377.111 369.731 376.267 368.531 375.673C367.331 375.066 365.744 374.763 363.771 374.763H355.998V407.353H351.577ZM368.763 390.951L377.748 407.353H372.614L363.771 390.951H368.763Z" fill="#091242"/>
<path d="M522.647 209.689V194.785" stroke="#091242" stroke-width="2.91995" stroke-miterlimit="10" stroke-linecap="round" stroke-linejoin="round"/>
<path d="M512.244 213.998L501.707 203.46" stroke="#091242" stroke-width="2.91995" stroke-miterlimit="10" stroke-linecap="round" stroke-linejoin="round"/>
<path d="M507.936 224.402H493.032" stroke="#091242" stroke-width="2.91995" stroke-miterlimit="10" stroke-linecap="round" stroke-linejoin="round"/>
<path d="M512.244 234.805L501.707 245.343" stroke="#091242" stroke-width="2.91995" stroke-miterlimit="10" stroke-linecap="round" stroke-linejoin="round"/>
<path d="M522.647 239.114V254.018" stroke="#091242" stroke-width="2.91995" stroke-miterlimit="10" stroke-linecap="round" stroke-linejoin="round"/>
<path d="M533.051 234.805L543.59 245.343" stroke="#091242" stroke-width="2.91995" stroke-miterlimit="10" stroke-linecap="round" stroke-linejoin="round"/>
<path d="M537.361 224.402H552.264" stroke="#091242" stroke-width="2.91995" stroke-miterlimit="10" stroke-linecap="round" stroke-linejoin="round"/>
<path d="M533.051 213.998L543.59 203.46" stroke="#091242" stroke-width="2.91995" stroke-miterlimit="10" stroke-linecap="round" stroke-linejoin="round"/>
<path d="M55.2119 283.897V273.125" stroke="#091242" stroke-width="2.91995" stroke-miterlimit="10" stroke-linecap="round" stroke-linejoin="round"/>
<path d="M47.6919 287.013L40.0747 279.396" stroke="#091242" stroke-width="2.91995" stroke-miterlimit="10" stroke-linecap="round" stroke-linejoin="round"/>
<path d="M44.5775 294.533H33.8052" stroke="#091242" stroke-width="2.91995" stroke-miterlimit="10" stroke-linecap="round" stroke-linejoin="round"/>
<path d="M47.6919 302.053L40.0747 309.67" stroke="#091242" stroke-width="2.91995" stroke-miterlimit="10" stroke-linecap="round" stroke-linejoin="round"/>
<path d="M55.2119 305.168V315.94" stroke="#091242" stroke-width="2.91995" stroke-miterlimit="10" stroke-linecap="round" stroke-linejoin="round"/>
<path d="M62.7314 302.053L70.3486 309.67" stroke="#091242" stroke-width="2.91995" stroke-miterlimit="10" stroke-linecap="round" stroke-linejoin="round"/>
<path d="M65.8462 294.533H76.6198" stroke="#091242" stroke-width="2.91995" stroke-miterlimit="10" stroke-linecap="round" stroke-linejoin="round"/>
<path d="M62.7314 287.013L70.3486 279.396" stroke="#091242" stroke-width="2.91995" stroke-miterlimit="10" stroke-linecap="round" stroke-linejoin="round"/>
<path d="M346.724 61.3884V50.6147" stroke="#091242" stroke-width="2.91995" stroke-miterlimit="10" stroke-linecap="round" stroke-linejoin="round"/>
<path d="M339.204 64.5029L331.586 56.8857" stroke="#091242" stroke-width="2.91995" stroke-miterlimit="10" stroke-linecap="round" stroke-linejoin="round"/>
<path d="M336.089 72.0227H325.317" stroke="#091242" stroke-width="2.91995" stroke-miterlimit="10" stroke-linecap="round" stroke-linejoin="round"/>
<path d="M339.204 79.5427L331.586 87.1599" stroke="#091242" stroke-width="2.91995" stroke-miterlimit="10" stroke-linecap="round" stroke-linejoin="round"/>
<path d="M346.724 82.6572V93.4295" stroke="#091242" stroke-width="2.91995" stroke-miterlimit="10" stroke-linecap="round" stroke-linejoin="round"/>
<path d="M354.243 79.5427L361.86 87.1599" stroke="#091242" stroke-width="2.91995" stroke-miterlimit="10" stroke-linecap="round" stroke-linejoin="round"/>
<path d="M357.358 72.0227H368.13" stroke="#091242" stroke-width="2.91995" stroke-miterlimit="10" stroke-linecap="round" stroke-linejoin="round"/>
<path d="M354.243 64.5029L361.86 56.8857" stroke="#091242" stroke-width="2.91995" stroke-miterlimit="10" stroke-linecap="round" stroke-linejoin="round"/>
<path d="M478.292 360.62H108.692V418.806H478.292V360.62Z" stroke="#091242" stroke-width="3.26544" stroke-miterlimit="10" stroke-linecap="round" stroke-linejoin="round"/>
<path d="M137.495 151.768V105.151H379.825V208.729" stroke="#091242" stroke-width="2.91995" stroke-miterlimit="10" stroke-linecap="round" stroke-linejoin="round"/>
<path d="M294.412 72.0229V130.387H455.109V156.94" stroke="#091242" stroke-width="2.91995" stroke-miterlimit="10" stroke-linecap="round" stroke-linejoin="round"/>
<path d="M143.278 157.55C143.278 160.745 140.688 163.333 137.495 163.333C134.301 163.333 131.713 160.743 131.713 157.55C131.713 154.357 134.302 151.768 137.495 151.768C140.69 151.768 143.278 154.356 143.278 157.55Z" stroke="#091242" stroke-width="2.91995" stroke-miterlimit="10" stroke-linecap="round" stroke-linejoin="round"/>
<path d="M294.413 72.0225C297.606 72.0225 300.195 69.4337 300.195 66.2401C300.195 63.0466 297.606 60.4578 294.413 60.4578C291.219 60.4578 288.63 63.0466 288.63 66.2401C288.63 69.4337 291.219 72.0225 294.413 72.0225Z" stroke="#091242" stroke-width="2.91995" stroke-miterlimit="10" stroke-linecap="round" stroke-linejoin="round"/>
<path d="M460.892 163.333C460.892 166.526 458.302 169.115 455.11 169.115C451.915 169.115 449.327 166.526 449.327 163.333C449.327 160.138 451.917 157.55 455.11 157.55C458.302 157.55 460.892 160.14 460.892 163.333Z" stroke="#091242" stroke-width="2.91995" stroke-miterlimit="10" stroke-linecap="round" stroke-linejoin="round"/>
<path d="M385.607 215.471C385.607 218.664 383.018 221.254 379.825 221.254C376.632 221.254 374.042 218.664 374.042 215.471C374.042 212.277 376.632 209.689 379.825 209.689C383.018 209.689 385.607 212.278 385.607 215.471Z" stroke="#091242" stroke-width="2.91995" stroke-miterlimit="10" stroke-linecap="round" stroke-linejoin="round"/>
<path d="M99.8106 331.283L86.1289 344.964" stroke="#091242" stroke-width="2.91995" stroke-miterlimit="10" stroke-linecap="round" stroke-linejoin="round"/>
<path d="M86.1289 331.283L99.8106 344.964" stroke="#091242" stroke-width="2.91995" stroke-miterlimit="10" stroke-linecap="round" stroke-linejoin="round"/>
<path d="M106.651 132.599L92.9697 146.282" stroke="#091242" stroke-width="2.91995" stroke-miterlimit="10" stroke-linecap="round" stroke-linejoin="round"/>
<path d="M92.9697 132.599L106.651 146.282" stroke="#091242" stroke-width="2.91995" stroke-miterlimit="10" stroke-linecap="round" stroke-linejoin="round"/>
<path d="M550.431 287.691L536.748 301.374" stroke="#091242" stroke-width="2.91995" stroke-miterlimit="10" stroke-linecap="round" stroke-linejoin="round"/>
<path d="M536.748 287.691L550.431 301.374" stroke="#091242" stroke-width="2.91995" stroke-miterlimit="10" stroke-linecap="round" stroke-linejoin="round"/>
<path d="M162.151 54.5122C157.787 54.5122 153.794 56.0823 150.692 58.6826C147.525 49.1483 138.55 42.2656 127.953 42.2656C116.09 42.2656 106.264 50.8913 104.344 62.2077C103.094 61.8499 101.778 61.646 100.411 61.646C92.5229 61.646 86.1289 68.0413 86.1289 75.9285C86.1289 83.1852 91.5454 89.1633 98.5523 90.0773V90.2123H162.151C172.009 90.2123 180.001 82.2212 180.001 72.3616C180.001 62.5047 172.009 54.5122 162.151 54.5122Z" stroke="#091242" stroke-width="3.05307" stroke-miterlimit="10" stroke-linecap="round" stroke-linejoin="round"/>
<path d="M493.102 145.313C496.272 145.313 499.173 146.454 501.426 148.343C503.727 141.417 510.248 136.416 517.946 136.416C526.565 136.416 533.703 142.683 535.097 150.904C536.006 150.643 536.962 150.496 537.954 150.496C543.685 150.496 548.331 155.142 548.331 160.873C548.331 166.145 544.397 170.488 539.306 171.151V171.248H493.103C485.941 171.248 480.136 165.442 480.136 158.281C480.136 151.12 485.94 145.313 493.102 145.313Z" stroke="#091242" stroke-width="2.91995" stroke-miterlimit="10" stroke-linecap="round" stroke-linejoin="round"/>
<path d="M556.804 390.617C554.146 390.617 551.713 391.574 549.823 393.158C547.893 387.35 542.424 383.155 535.968 383.155C528.74 383.155 522.754 388.411 521.584 395.306C520.823 395.089 520.021 394.964 519.188 394.964C514.382 394.964 510.485 398.861 510.485 403.667C510.485 408.089 513.785 411.731 518.055 412.287V412.37H556.803C562.809 412.37 567.679 407.501 567.679 401.495C567.679 395.487 562.81 390.617 556.804 390.617Z" stroke="#091242" stroke-width="2.91995" stroke-miterlimit="10" stroke-linecap="round" stroke-linejoin="round"/>
<path d="M30.8996 367.667C34.0696 367.667 36.971 368.808 39.2242 370.697C41.5248 363.771 48.0457 358.77 55.7438 358.77C64.3627 358.77 71.5006 365.037 72.8952 373.258C73.8038 372.997 74.7597 372.85 75.752 372.85C81.4831 372.85 86.1287 377.496 86.1287 383.227C86.1287 388.499 82.1946 392.842 77.1034 393.505V393.602H30.8996C23.7375 393.602 17.9321 387.797 17.9321 380.635C17.9321 373.472 23.7375 367.667 30.8996 367.667Z" stroke="#091242" stroke-width="2.91995" stroke-miterlimit="10" stroke-linecap="round" stroke-linejoin="round"/>
<path d="M180.001 45.9487C180.001 45.9487 261.6 -20.5792 372.469 10.0703C488.931 42.2656 512.244 125.309 512.244 125.309" stroke="#091242" stroke-width="2.91995" stroke-miterlimit="10" stroke-linecap="round" stroke-linejoin="round" stroke-dasharray="4.41 10.29"/>
<path d="M56.7943 239.31C25.1606 244.216 9.25806 311.354 44.8408 338.006" stroke="#091242" stroke-width="2.72257" stroke-miterlimit="10" stroke-linecap="round" stroke-linejoin="round" stroke-dasharray="4.11 9.6"/>
<path d="M455.11 433.027C455.11 433.027 509.299 456.716 533.053 423.667" stroke="#091242" stroke-width="2.91995" stroke-miterlimit="10" stroke-linecap="round" stroke-linejoin="round" stroke-dasharray="4.41 10.29"/>
<path d="M197.311 163.333V129.114" stroke="#091242" stroke-width="2.91995" stroke-miterlimit="10" stroke-linecap="round" stroke-linejoin="round"/>
<path d="M189.051 163.333V146.282" stroke="#091242" stroke-width="2.91995" stroke-miterlimit="10" stroke-linecap="round" stroke-linejoin="round"/>
<path d="M323.08 171.25V146.223" stroke="#091242" stroke-width="2.91995" stroke-miterlimit="10" stroke-linecap="round" stroke-linejoin="round"/>
<path d="M313.697 169.115V158.736" stroke="#091242" stroke-width="2.91995" stroke-miterlimit="10" stroke-linecap="round" stroke-linejoin="round"/>
<path d="M305.373 169.115V151.768" stroke="#091242" stroke-width="2.91995" stroke-miterlimit="10" stroke-linecap="round" stroke-linejoin="round"/>
<path d="M205.25 163.333V146.223" stroke="#091242" stroke-width="2.91995" stroke-miterlimit="10" stroke-linecap="round" stroke-linejoin="round"/>
<path d="M432.065 168.096V160.441" stroke="#091242" stroke-width="2.91995" stroke-miterlimit="10" stroke-linecap="round" stroke-linejoin="round"/>
<path d="M423.806 168.096V149.451" stroke="#091242" stroke-width="2.91995" stroke-miterlimit="10" stroke-linecap="round" stroke-linejoin="round"/>
<path d="M440.005 168.096V154.779" stroke="#091242" stroke-width="2.91995" stroke-miterlimit="10" stroke-linecap="round" stroke-linejoin="round"/>
</svg>
