<svg width="32" height="32" viewBox="0 0 32 32" fill="none" xmlns="http://www.w3.org/2000/svg">
<path d="M32 9L2.97521 23L0 12.3721L32 9Z" fill="#252F84"/>
<path d="M2.96484 20.0623V19.1831L3.76658 19.0323V13.7821L2.96484 13.6314V12.7471H6.07867V13.6314L5.27693 13.7821V19.0323L6.07867 19.1831V20.0623H2.96484Z" fill="white"/>
<path d="M6.65798 20.0623V19.1831L7.45971 19.0323V13.7821L6.65798 13.6314V12.7471H12.6529V14.7518H11.4942L11.427 13.8775H8.97007V15.8922H11.608V17.0227H8.97007V19.0323L9.77698 19.1831V20.0623H6.65798Z" fill="white"/>
<path d="M13.2063 20.0623V19.1831L14.0081 19.0323V13.7821L13.2063 13.6314V12.7471H16.3201V13.6314L15.5184 13.7821V19.0323L16.3201 19.1831V20.0623H13.2063Z" fill="white"/>
<path d="M20.484 20.1678C19.7529 20.1678 19.1167 20.0204 18.5753 19.7257C18.034 19.4276 17.615 19.0072 17.3184 18.4646C17.0253 17.9187 16.8788 17.2739 16.8788 16.5303V16.2841C16.8788 15.574 17.0202 14.946 17.3029 14.4001C17.5891 13.8508 17.996 13.4203 18.5236 13.1088C19.0512 12.7974 19.6788 12.6416 20.4064 12.6416C20.9167 12.6416 21.3943 12.7119 21.8392 12.8526C22.2874 12.9933 22.6874 13.2077 23.0392 13.4957V15.2642H21.9167L21.7616 14.1539C21.6478 14.0735 21.5236 14.0048 21.3892 13.9479C21.2547 13.8909 21.1081 13.8474 20.9495 13.8173C20.7943 13.7871 20.6254 13.772 20.4426 13.772C20.015 13.772 19.6478 13.8742 19.3409 14.0785C19.034 14.2828 18.7978 14.5726 18.6322 14.9477C18.4702 15.3195 18.3891 15.7616 18.3891 16.2741V16.5303C18.3891 17.0428 18.4753 17.4866 18.6478 17.8617C18.8202 18.2369 19.065 18.5283 19.3822 18.7359C19.6995 18.9402 20.0754 19.0424 20.5098 19.0424C20.7271 19.0424 20.9443 19.0189 21.1616 18.9721C21.3823 18.9218 21.5823 18.8582 21.7616 18.7811L21.9167 17.7512H23.0392V19.4996C22.7461 19.6872 22.3805 19.8463 21.9426 19.9769C21.5047 20.1042 21.0185 20.1678 20.484 20.1678Z" fill="white"/>
<path d="M26.8099 20.1678C26.2547 20.1678 25.7495 20.1075 25.2944 19.9869C24.8392 19.8664 24.3909 19.657 23.9495 19.3589V17.5904H25.1185L25.2789 18.6304C25.434 18.7577 25.6478 18.8615 25.9202 18.9419C26.1927 19.0189 26.4892 19.0575 26.8099 19.0575C27.0823 19.0575 27.3116 19.0206 27.4978 18.9469C27.6875 18.8732 27.8306 18.7694 27.9272 18.6354C28.0272 18.4981 28.0772 18.3373 28.0772 18.1531C28.0772 17.9789 28.0323 17.8249 27.9427 17.6909C27.8565 17.5536 27.7116 17.4296 27.5082 17.3191C27.3082 17.2052 27.0358 17.0964 26.6909 16.9925C26.0944 16.8217 25.5995 16.6358 25.2064 16.4349C24.8168 16.2305 24.5237 15.9877 24.3271 15.7063C24.134 15.4216 24.0375 15.08 24.0375 14.6814C24.0375 14.2862 24.1495 13.9378 24.3737 13.6364C24.6013 13.3316 24.9151 13.0921 25.3151 12.9179C25.7151 12.7438 26.1771 12.6533 26.7013 12.6466C27.2806 12.6399 27.7927 12.7069 28.2375 12.8476C28.6858 12.9883 29.072 13.1842 29.3961 13.4354V15.0833H28.2634L28.0668 14.0785C27.9358 13.9981 27.7582 13.9278 27.534 13.8675C27.3134 13.8072 27.0616 13.7771 26.7789 13.7771C26.5375 13.7771 26.3237 13.8122 26.1375 13.8826C25.9547 13.9529 25.8099 14.0551 25.703 14.189C25.5961 14.323 25.5426 14.4855 25.5426 14.6764C25.5426 14.8405 25.5892 14.9845 25.6823 15.1085C25.7754 15.229 25.9306 15.3446 26.1478 15.4551C26.3685 15.5623 26.672 15.6779 27.0582 15.8018C27.8892 16.0262 28.5185 16.3226 28.9461 16.6911C29.3772 17.0595 29.5927 17.5435 29.5927 18.1431C29.5927 18.5584 29.4772 18.9185 29.2461 19.2233C29.0151 19.5247 28.691 19.7575 28.2737 19.9216C27.8565 20.0857 27.3685 20.1678 26.8099 20.1678Z" fill="white"/>
</svg>
