<svg viewBox="0 0 160 73" fill="none" xmlns="http://www.w3.org/2000/svg">
<path d="M159.853 0.841797L14.8624 72.8418L0 18.1842L159.853 0.841797Z" fill="#252F84"/>
<path d="M14.8105 57.7329V53.2112L18.8155 52.436V25.4347L14.8105 24.6595V20.1119H30.3654V24.6595L26.3604 25.4347V52.436L30.3654 53.2112V57.7329H14.8105Z" fill="white"/>
<path d="M33.2593 57.7329V53.2112L37.2643 52.436V25.4347L33.2593 24.6595V20.1119H63.2062V30.4215H57.4184L57.0825 25.9256H44.8092V36.2869H57.9868V42.1006H44.8092V52.436L48.84 53.2112V57.7329H33.2593Z" fill="white"/>
<path d="M65.971 57.7329V53.2112L69.9759 52.436V25.4347L65.971 24.6595V20.1119H81.5258V24.6595L77.5208 25.4347V52.436L81.5258 53.2112V57.7329H65.971Z" fill="white"/>
<path d="M102.326 58.2755C98.674 58.2755 95.4959 57.5176 92.7914 56.0018C90.087 54.4687 87.994 52.3068 86.5126 49.5163C85.0485 46.7085 84.3164 43.3925 84.3164 39.5684V38.3023C84.3164 34.6505 85.0226 31.4206 86.4351 28.6128C87.8649 25.7878 89.8975 23.5743 92.533 21.9723C95.1686 20.3703 98.3036 19.5693 101.938 19.5693C104.488 19.5693 106.873 19.9311 109.096 20.6546C111.335 21.378 113.333 22.4805 115.09 23.9619V33.0571H109.483L108.708 27.3468C108.14 26.9333 107.519 26.5802 106.848 26.2874C106.176 25.9945 105.444 25.7706 104.651 25.6156C103.876 25.4605 103.032 25.383 102.119 25.383C99.9832 25.383 98.1486 25.9084 96.6155 26.9592C95.0824 28.0099 93.9025 29.5 93.0756 31.4292C92.266 33.3413 91.8612 35.6151 91.8612 38.2506V39.5684C91.8612 42.2039 92.2919 44.4863 93.1532 46.4156C94.0144 48.3449 95.2375 49.8436 96.8222 50.9115C98.407 51.9623 100.285 52.4877 102.455 52.4877C103.54 52.4877 104.625 52.3671 105.711 52.126C106.813 51.8676 107.812 51.5403 108.708 51.1441L109.483 45.8472H115.09V54.839C113.626 55.8037 111.8 56.6219 109.612 57.2937C107.425 57.9483 104.996 58.2755 102.326 58.2755Z" fill="white"/>
<path d="M133.926 58.2755C131.153 58.2755 128.63 57.9655 126.356 57.3454C124.082 56.7252 121.843 55.6486 119.638 54.1155V45.0203H125.477L126.278 50.3689C127.053 51.0235 128.121 51.5575 129.482 51.9709C130.843 52.3671 132.324 52.5652 133.926 52.5652C135.287 52.5652 136.433 52.3757 137.363 51.9968C138.31 51.6178 139.025 51.0838 139.508 50.3948C140.007 49.6885 140.257 48.8617 140.257 47.9143C140.257 47.0185 140.033 46.2262 139.585 45.5371C139.154 44.8309 138.431 44.1935 137.415 43.6251C136.416 43.0394 135.055 42.4796 133.332 41.9456C130.352 41.067 127.88 40.111 125.916 39.0775C123.97 38.0267 122.506 36.7778 121.524 35.3309C120.559 33.8667 120.077 32.1097 120.077 30.0598C120.077 28.0272 120.637 26.2357 121.756 24.6854C122.893 23.1178 124.461 21.8862 126.459 20.9905C128.457 20.0947 130.766 19.6296 133.384 19.5952C136.278 19.5607 138.836 19.9052 141.058 20.6287C143.297 21.3522 145.227 22.3599 146.846 23.6518V32.1269H141.187L140.205 26.9592C139.551 26.5458 138.664 26.184 137.544 25.874C136.441 25.5639 135.184 25.4089 133.771 25.4089C132.566 25.4089 131.498 25.5897 130.567 25.9515C129.654 26.3132 128.931 26.8386 128.397 27.5276C127.863 28.2167 127.596 29.0521 127.596 30.034C127.596 30.878 127.829 31.6187 128.294 32.2561C128.759 32.8762 129.534 33.4705 130.619 34.0389C131.722 34.5902 133.237 35.1845 135.167 35.8218C139.318 36.9759 142.462 38.5004 144.598 40.3952C146.751 42.2901 147.828 44.7792 147.828 47.8626C147.828 49.9986 147.251 51.8503 146.096 53.4179C144.942 54.9682 143.323 56.1654 141.239 57.0095C139.154 57.8535 136.717 58.2755 133.926 58.2755Z" fill="white"/>
</svg>
