<svg width="41" height="42" viewBox="0 0 41 42" fill="none" xmlns="http://www.w3.org/2000/svg">
<rect x="10.2195" y="21.3421" width="3.59649" height="3.59649" stroke="#091242" stroke-width="0.719298" stroke-linecap="round" stroke-linejoin="round"/>
<rect x="10.2195" y="30.6929" width="3.59649" height="3.59649" stroke="#091242" stroke-width="0.719298" stroke-linecap="round" stroke-linejoin="round"/>
<rect x="18.8509" y="21.3421" width="3.59649" height="3.59649" stroke="#091242" stroke-width="0.719298" stroke-linecap="round" stroke-linejoin="round"/>
<rect x="18.8509" y="30.6929" width="3.59649" height="3.59649" stroke="#091242" stroke-width="0.719298" stroke-linecap="round" stroke-linejoin="round"/>
<rect x="27.4827" y="21.3421" width="3.59649" height="3.59649" fill="#FF7A00" stroke="#091242" stroke-width="0.719298" stroke-linecap="round" stroke-linejoin="round"/>
<rect x="27.4827" y="30.6929" width="3.59649" height="3.59649" stroke="#091242" stroke-width="0.719298" stroke-linecap="round" stroke-linejoin="round"/>
<path d="M39.3508 14.5087H1.94727V6.59637C1.94727 5.4046 2.91339 4.43848 4.10516 4.43848H37.1929C38.3847 4.43848 39.3508 5.4046 39.3508 6.59637V14.5087Z" fill="#FF7A00"/>
<path d="M3.64743 4.55862H37.6506C38.391 4.55862 38.9911 5.15879 38.9911 5.89913V39.9023C38.9911 40.6427 38.391 41.2428 37.6506 41.2428H3.64743C2.90708 41.2428 2.30691 40.6427 2.30691 39.9023V5.89913C2.30691 5.15879 2.90708 4.55862 3.64743 4.55862Z" stroke="#091242" stroke-width="0.719298" stroke-linecap="round" stroke-linejoin="round"/>
<path d="M30.4805 0.842041V7.55549" stroke="#091242" stroke-width="0.719298" stroke-linecap="round" stroke-linejoin="round"/>
<path d="M10.3403 0.842041V7.55549" stroke="#091242" stroke-width="0.719298" stroke-linecap="round" stroke-linejoin="round"/>
<path d="M2.6665 14.5088H38.6314" stroke="#091242" stroke-width="0.719298" stroke-linecap="round" stroke-linejoin="round"/>
</svg>
