<!-- sample rectangle -->
<svg width="72" height="32" viewBox="0 0 72 32" fill="none" xmlns="http://www.w3.org/2000/svg">
<path d="M71.0459 0L6.6055 32L0 7.70773L71.0459 0Z" fill="#252F84"/>
<path d="M6.58252 25.2849V23.2752L8.36251 22.9307V10.9301L6.58252 10.5856V8.56446H13.4958V10.5856L11.7158 10.9301V22.9307L13.4958 23.2752V25.2849H6.58252Z" fill="white"/>
<path d="M14.782 25.2849V23.2752L16.562 22.9307V10.9301L14.782 10.5856V8.56446H28.0917V13.1465H25.5193L25.37 11.1483H19.9152V15.7533H25.772V18.3372H19.9152V22.9307L21.7067 23.2752V25.2849H14.782Z" fill="white"/>
<path d="M29.3205 25.2849V23.2752L31.1005 22.9307V10.9301L29.3205 10.5856V8.56446H36.2337V10.5856L34.4537 10.9301V22.9307L36.2337 23.2752V25.2849H29.3205Z" fill="white"/>
<path d="M45.4782 25.5261C43.8552 25.5261 42.4427 25.1892 41.2407 24.5155C40.0387 23.8341 39.1085 22.8733 38.4501 21.633C37.7994 20.3851 37.474 18.9114 37.474 17.2118V16.6491C37.474 15.026 37.7879 13.5905 38.4157 12.3426C39.0511 11.0871 39.9545 10.1033 41.1258 9.3913C42.2972 8.6793 43.6906 8.3233 45.306 8.3233C46.439 8.3233 47.4994 8.48408 48.487 8.80562C49.4822 9.12717 50.3703 9.61715 51.1512 10.2756V14.3179H48.6592L48.3147 11.7799C48.0621 11.5962 47.7865 11.4392 47.4879 11.3091C47.1893 11.1789 46.8639 11.0794 46.5118 11.0105C46.1672 10.9416 45.7921 10.9072 45.3863 10.9072C44.437 10.9072 43.6217 11.1407 42.9403 11.6077C42.2589 12.0747 41.7345 12.7369 41.367 13.5944C41.0072 14.4442 40.8273 15.4548 40.8273 16.6261V17.2118C40.8273 18.3831 41.0187 19.3975 41.4015 20.255C41.7843 21.1124 42.3278 21.7785 43.0322 22.2532C43.7365 22.7202 44.571 22.9537 45.5356 22.9537C46.018 22.9537 46.5003 22.9001 46.9826 22.7929C47.4726 22.6781 47.9166 22.5326 48.3147 22.3565L48.6592 20.0023H51.1512V23.9987C50.5005 24.4274 49.6889 24.7911 48.7167 25.0897C47.7444 25.3806 46.6649 25.5261 45.4782 25.5261Z" fill="white"/>
<path d="M59.5229 25.5261C58.2903 25.5261 57.1687 25.3883 56.1582 25.1126C55.1476 24.837 54.1523 24.3585 53.1724 23.6772V19.6349H55.7677L56.1237 22.012C56.4682 22.3029 56.9429 22.5403 57.5477 22.724C58.1525 22.9001 58.8109 22.9881 59.5229 22.9881C60.1277 22.9881 60.6369 22.9039 61.0503 22.7355C61.4713 22.5671 61.7891 22.3297 62.0034 22.0235C62.2255 21.7096 62.3365 21.3421 62.3365 20.9211C62.3365 20.5229 62.2369 20.1708 62.0379 19.8645C61.8465 19.5506 61.5249 19.2674 61.0732 19.0147C60.6292 18.7544 60.0244 18.5056 59.2588 18.2683C57.9343 17.8778 56.8357 17.4529 55.9629 16.9936C55.0978 16.5266 54.4471 15.9715 54.0107 15.3284C53.582 14.6777 53.3676 13.8968 53.3676 12.9857C53.3676 12.0823 53.6164 11.2861 54.114 10.5971C54.6193 9.90041 55.316 9.35302 56.2041 8.95491C57.0922 8.55681 58.1181 8.3501 59.2818 8.33479C60.568 8.31948 61.7048 8.47259 62.6925 8.79414C63.6877 9.11569 64.5452 9.56356 65.2648 10.1377V13.9044H62.7499L62.3135 11.6077C62.0226 11.4239 61.6283 11.2632 61.1307 11.1254C60.6407 10.9875 60.0818 10.9186 59.454 10.9186C58.9181 10.9186 58.4434 10.999 58.03 11.1598C57.6243 11.3206 57.3027 11.5541 57.0654 11.8603C56.8281 12.1666 56.7094 12.5379 56.7094 12.9742C56.7094 13.3494 56.8127 13.6786 57.0195 13.9619C57.2262 14.2375 57.5707 14.5016 58.053 14.7542C58.543 14.9992 59.2167 15.2634 60.0742 15.5466C61.9192 16.0596 63.3164 16.7371 64.2657 17.5793C65.2227 18.4214 65.7012 19.5277 65.7012 20.8981C65.7012 21.8474 65.4447 22.6704 64.9318 23.3671C64.4189 24.0561 63.6992 24.5882 62.7728 24.9634C61.8465 25.3385 60.7632 25.5261 59.5229 25.5261Z" fill="white"/>
</svg>
