<svg width="456" height="72" viewBox="0 0 456 72" fill="none" xmlns="http://www.w3.org/2000/svg">
<path d="M159.853 0L14.8624 72L0 17.3424L159.853 0Z" fill="#252F84"/>
<path d="M14.8105 56.8911V52.3694L18.8155 51.5942V24.5929L14.8105 23.8177V19.2701H30.3654V23.8177L26.3604 24.5929V51.5942L30.3654 52.3694V56.8911H14.8105Z" fill="white"/>
<path d="M33.2593 56.8911V52.3694L37.2643 51.5942V24.5929L33.2593 23.8177V19.2701H63.2062V29.5797H57.4184L57.0825 25.0838H44.8092V35.4451H57.9868V41.2588H44.8092V51.5942L48.84 52.3694V56.8911H33.2593Z" fill="white"/>
<path d="M65.971 56.8911V52.3694L69.9759 51.5942V24.5929L65.971 23.8177V19.2701H81.5258V23.8177L77.5208 24.5929V51.5942L81.5258 52.3694V56.8911H65.971Z" fill="white"/>
<path d="M102.326 57.4338C98.674 57.4338 95.4959 56.6758 92.7914 55.16C90.087 53.6269 87.994 51.465 86.5126 48.6745C85.0485 45.8667 84.3164 42.5507 84.3164 38.7266V37.4605C84.3164 33.8087 85.0226 30.5788 86.4351 27.771C87.8649 24.946 89.8975 22.7325 92.533 21.1305C95.1686 19.5285 98.3036 18.7275 101.938 18.7275C104.488 18.7275 106.873 19.0893 109.096 19.8128C111.335 20.5362 113.333 21.6387 115.09 23.1201V32.2153H109.483L108.708 26.505C108.14 26.0915 107.519 25.7384 106.848 25.4456C106.176 25.1527 105.444 24.9288 104.651 24.7738C103.876 24.6187 103.032 24.5412 102.119 24.5412C99.9832 24.5412 98.1486 25.0666 96.6155 26.1174C95.0824 27.1681 93.9025 28.6582 93.0756 30.5875C92.266 32.4995 91.8612 34.7733 91.8612 37.4088V38.7266C91.8612 41.3621 92.2919 43.6446 93.1532 45.5738C94.0144 47.5031 95.2375 49.0018 96.8222 50.0697C98.407 51.1205 100.285 51.6459 102.455 51.6459C103.54 51.6459 104.625 51.5253 105.711 51.2842C106.813 51.0258 107.812 50.6985 108.708 50.3023L109.483 45.0054H115.09V53.9972C113.626 54.9619 111.8 55.7801 109.612 56.4519C107.425 57.1065 104.996 57.4338 102.326 57.4338Z" fill="white"/>
<path d="M133.926 57.4338C131.153 57.4338 128.63 57.1237 126.356 56.5036C124.082 55.8834 121.843 54.8068 119.638 53.2737V44.1786H125.477L126.278 49.5271C127.053 50.1817 128.121 50.7157 129.482 51.1291C130.843 51.5253 132.324 51.7234 133.926 51.7234C135.287 51.7234 136.433 51.5339 137.363 51.155C138.31 50.776 139.025 50.242 139.508 49.553C140.007 48.8467 140.257 48.0199 140.257 47.0725C140.257 46.1767 140.033 45.3844 139.585 44.6953C139.154 43.9891 138.431 43.3517 137.415 42.7833C136.416 42.1976 135.055 41.6378 133.332 41.1038C130.352 40.2252 127.88 39.2692 125.916 38.2357C123.97 37.1849 122.506 35.936 121.524 34.4891C120.559 33.0249 120.077 31.2679 120.077 29.218C120.077 27.1854 120.637 25.3939 121.756 23.8436C122.893 22.276 124.461 21.0444 126.459 20.1487C128.457 19.2529 130.766 18.7878 133.384 18.7534C136.278 18.7189 138.836 19.0634 141.058 19.7869C143.297 20.5104 145.227 21.5181 146.846 22.81V31.2851H141.187L140.205 26.1174C139.551 25.704 138.664 25.3422 137.544 25.0322C136.441 24.7221 135.184 24.5671 133.771 24.5671C132.566 24.5671 131.498 24.7479 130.567 25.1097C129.654 25.4714 128.931 25.9968 128.397 26.6858C127.863 27.3749 127.596 28.2103 127.596 29.1922C127.596 30.0362 127.829 30.7769 128.294 31.4143C128.759 32.0344 129.534 32.6287 130.619 33.1971C131.722 33.7484 133.237 34.3427 135.167 34.98C139.318 36.1341 142.462 37.6586 144.598 39.5534C146.751 41.4483 147.828 43.9374 147.828 47.0208C147.828 49.1568 147.251 51.0086 146.096 52.5761C144.942 54.1264 143.323 55.3236 141.239 56.1677C139.154 57.0117 136.717 57.4338 133.926 57.4338Z" fill="white"/>
<rect x="175.854" y="0.5" width="2" height="71" fill="white"/>
<path d="M194.369 14.5V13.2969L195.611 13.0625V4.57031L194.369 4.33594V3.125H198.814V4.33594L197.58 4.57031V13.0625L198.814 13.2969V14.5H194.369ZM199.814 14.5V13.2969L200.986 13.0625V7.49219L199.752 7.25781V6.04688H202.799L202.9 7.27344C203.182 6.83594 203.531 6.4974 203.947 6.25781C204.369 6.01302 204.846 5.89062 205.377 5.89062C206.247 5.89062 206.924 6.15885 207.408 6.69531C207.893 7.22656 208.135 8.0599 208.135 9.19531V13.0625L209.307 13.2969V14.5H205.064V13.2969L206.166 13.0625V9.21094C206.166 8.57031 206.038 8.11719 205.783 7.85156C205.528 7.58073 205.148 7.44531 204.643 7.44531C204.262 7.44531 203.929 7.53125 203.643 7.70312C203.361 7.86979 203.132 8.10417 202.955 8.40625V13.0625L204.025 13.2969V14.5H199.814ZM213.736 14.6641C213.132 14.6641 212.567 14.6068 212.041 14.4922C211.52 14.3724 210.997 14.1979 210.471 13.9688L210.447 11.7344H211.861L212.158 12.9531C212.382 13.0521 212.611 13.1302 212.846 13.1875C213.085 13.2396 213.351 13.2656 213.643 13.2656C214.205 13.2656 214.601 13.1667 214.83 12.9688C215.064 12.7708 215.182 12.526 215.182 12.2344C215.182 11.9531 215.059 11.7135 214.814 11.5156C214.575 11.3125 214.114 11.138 213.432 10.9922C212.421 10.7734 211.676 10.4557 211.197 10.0391C210.723 9.61719 210.486 9.07031 210.486 8.39844C210.486 7.9349 210.609 7.51562 210.854 7.14062C211.104 6.76562 211.468 6.46615 211.947 6.24219C212.432 6.01302 213.025 5.89844 213.729 5.89844C214.369 5.89844 214.937 5.96615 215.432 6.10156C215.932 6.23177 216.356 6.40625 216.705 6.625L216.752 8.77344H215.354L215.111 7.65625C214.95 7.54167 214.762 7.45312 214.549 7.39062C214.335 7.32812 214.09 7.29688 213.814 7.29688C213.382 7.29688 213.041 7.39323 212.791 7.58594C212.541 7.77344 212.416 8.01042 212.416 8.29688C212.416 8.46354 212.455 8.61458 212.533 8.75C212.617 8.88542 212.773 9.01042 213.002 9.125C213.236 9.23438 213.577 9.34115 214.025 9.44531C215.124 9.70052 215.911 10.0339 216.385 10.4453C216.859 10.8568 217.096 11.401 217.096 12.0781C217.096 12.8333 216.82 13.4531 216.268 13.9375C215.715 14.4219 214.872 14.6641 213.736 14.6641ZM221.424 14.6484C220.705 14.6484 220.145 14.4479 219.744 14.0469C219.343 13.6406 219.143 12.9948 219.143 12.1094V7.45312H217.908V6.04688H219.143V3.99219H221.104V6.04688H222.775V7.45312H221.104V12.1094C221.104 12.4688 221.176 12.7318 221.322 12.8984C221.473 13.0599 221.676 13.1406 221.932 13.1406C222.077 13.1406 222.239 13.1276 222.416 13.1016C222.598 13.0755 222.744 13.0495 222.854 13.0234L223.057 14.4062C222.827 14.474 222.564 14.5312 222.268 14.5781C221.976 14.625 221.695 14.6484 221.424 14.6484ZM224.025 14.5V13.2969L225.197 13.0625V7.49219L223.955 7.25781V6.04688H227.166V13.0625L228.33 13.2969V14.5H224.025ZM225.119 4.13281V2.3125H227.166V4.13281H225.119ZM232.408 14.6484C231.689 14.6484 231.13 14.4479 230.729 14.0469C230.327 13.6406 230.127 12.9948 230.127 12.1094V7.45312H228.893V6.04688H230.127V3.99219H232.088V6.04688H233.76V7.45312H232.088V12.1094C232.088 12.4688 232.161 12.7318 232.307 12.8984C232.458 13.0599 232.661 13.1406 232.916 13.1406C233.062 13.1406 233.223 13.1276 233.4 13.1016C233.583 13.0755 233.729 13.0495 233.838 13.0234L234.041 14.4062C233.812 14.474 233.549 14.5312 233.252 14.5781C232.96 14.625 232.679 14.6484 232.408 14.6484ZM238.604 14.6641C237.697 14.6641 236.989 14.3776 236.479 13.8047C235.973 13.2266 235.721 12.3307 235.721 11.1172V7.49219L234.768 7.25781V6.04688H235.721H237.689V11.1328C237.689 11.862 237.804 12.375 238.033 12.6719C238.268 12.9635 238.627 13.1094 239.111 13.1094C239.538 13.1094 239.9 13.026 240.197 12.8594C240.499 12.6875 240.739 12.4453 240.916 12.1328V7.49219L239.854 7.25781V6.04688H240.916H242.885V13.0625L243.885 13.2969V14.5H241.143L241.01 13.3516C240.744 13.7734 240.406 14.099 239.994 14.3281C239.588 14.5521 239.124 14.6641 238.604 14.6641ZM248.002 14.6484C247.283 14.6484 246.723 14.4479 246.322 14.0469C245.921 13.6406 245.721 12.9948 245.721 12.1094V7.45312H244.486V6.04688H245.721V3.99219H247.682V6.04688H249.354V7.45312H247.682V12.1094C247.682 12.4688 247.755 12.7318 247.9 12.8984C248.051 13.0599 248.255 13.1406 248.51 13.1406C248.656 13.1406 248.817 13.1276 248.994 13.1016C249.176 13.0755 249.322 13.0495 249.432 13.0234L249.635 14.4062C249.406 14.474 249.143 14.5312 248.846 14.5781C248.554 14.625 248.273 14.6484 248.002 14.6484ZM254.322 14.6641C253.51 14.6641 252.812 14.4818 252.229 14.1172C251.645 13.7526 251.197 13.2474 250.885 12.6016C250.572 11.9505 250.416 11.2031 250.416 10.3594V10.1953C250.416 9.35677 250.572 8.61458 250.885 7.96875C251.197 7.32292 251.645 6.8151 252.229 6.44531C252.812 6.07552 253.505 5.89062 254.307 5.89062C255.119 5.89062 255.817 6.07552 256.4 6.44531C256.984 6.8099 257.432 7.3151 257.744 7.96094C258.057 8.60677 258.213 9.35156 258.213 10.1953V10.3594C258.213 11.2031 258.057 11.9505 257.744 12.6016C257.432 13.2474 256.984 13.7526 256.4 14.1172C255.822 14.4818 255.13 14.6641 254.322 14.6641ZM254.322 13.1484C254.76 13.1484 255.119 13.0312 255.4 12.7969C255.687 12.5573 255.9 12.2292 256.041 11.8125C256.182 11.3906 256.252 10.9062 256.252 10.3594V10.1953C256.252 9.65365 256.182 9.17448 256.041 8.75781C255.9 8.34115 255.687 8.01302 255.4 7.77344C255.114 7.53385 254.749 7.41406 254.307 7.41406C253.874 7.41406 253.515 7.53385 253.229 7.77344C252.942 8.01302 252.729 8.34115 252.588 8.75781C252.452 9.17448 252.385 9.65365 252.385 10.1953V10.3594C252.385 10.9062 252.452 11.3906 252.588 11.8125C252.729 12.2292 252.942 12.5573 253.229 12.7969C253.52 13.0312 253.885 13.1484 254.322 13.1484ZM266.541 14.6641C265.859 14.6641 265.275 14.4922 264.791 14.1484C264.307 13.8047 263.934 13.3255 263.674 12.7109C263.419 12.0911 263.291 11.3698 263.291 10.5469V10.3828C263.291 9.48177 263.419 8.69531 263.674 8.02344C263.934 7.35156 264.307 6.82812 264.791 6.45312C265.281 6.07812 265.861 5.89062 266.533 5.89062C267.018 5.89062 267.439 5.98438 267.799 6.17188C268.163 6.35417 268.476 6.61719 268.736 6.96094V3.75781L267.494 3.52344V2.3125H268.736H270.705V13.0625L271.877 13.2969V14.5H269.002L268.846 13.4766C268.58 13.8672 268.255 14.1641 267.869 14.3672C267.489 14.5651 267.046 14.6641 266.541 14.6641ZM267.096 13.1094C267.471 13.1094 267.794 13.0286 268.064 12.8672C268.335 12.7005 268.559 12.4609 268.736 12.1484V8.42188C268.564 8.11979 268.34 7.88281 268.064 7.71094C267.794 7.53385 267.476 7.44531 267.111 7.44531C266.684 7.44531 266.333 7.57031 266.057 7.82031C265.786 8.0651 265.585 8.40885 265.455 8.85156C265.325 9.28906 265.26 9.79948 265.26 10.3828V10.5469C265.26 11.3281 265.403 11.9505 265.689 12.4141C265.981 12.8776 266.45 13.1094 267.096 13.1094ZM276.674 14.6641C275.877 14.6641 275.182 14.487 274.588 14.1328C273.999 13.7734 273.541 13.2786 273.213 12.6484C272.89 12.0182 272.729 11.2969 272.729 10.4844V10.1562C272.729 9.33333 272.887 8.60156 273.205 7.96094C273.528 7.3151 273.971 6.8099 274.533 6.44531C275.096 6.07552 275.736 5.89062 276.455 5.89062C277.221 5.89062 277.861 6.04427 278.377 6.35156C278.898 6.65885 279.291 7.09635 279.557 7.66406C279.822 8.22656 279.955 8.90365 279.955 9.69531V10.8203H274.768L274.752 10.8594C274.773 11.3021 274.864 11.6953 275.025 12.0391C275.192 12.3828 275.426 12.6536 275.729 12.8516C276.036 13.0495 276.408 13.1484 276.846 13.1484C277.304 13.1484 277.721 13.0859 278.096 12.9609C278.471 12.8359 278.817 12.6589 279.135 12.4297L279.752 13.6641C279.419 13.9453 278.994 14.1823 278.479 14.375C277.963 14.5677 277.361 14.6641 276.674 14.6641ZM274.799 9.4375H278.072V9.23438C278.072 8.86458 278.015 8.54167 277.9 8.26562C277.791 7.98438 277.617 7.76562 277.377 7.60938C277.143 7.45312 276.843 7.375 276.479 7.375C276.161 7.375 275.882 7.46354 275.643 7.64062C275.403 7.81771 275.21 8.0599 275.064 8.36719C274.924 8.66927 274.827 9.01302 274.775 9.39844L274.799 9.4375ZM194.369 32.5V31.2969L195.611 31.0625V22.5703L194.369 22.3359V21.125H203.213V24.0781H201.682L201.557 22.6484H197.58V26.1172H201.635V27.6406H197.58V31.0625L198.822 31.2969V32.5H194.369ZM206.768 32.6641C205.908 32.6641 205.239 32.4427 204.76 32C204.281 31.5573 204.041 30.9479 204.041 30.1719C204.041 29.6406 204.187 29.1745 204.479 28.7734C204.77 28.3724 205.197 28.0599 205.76 27.8359C206.322 27.6068 207.005 27.4922 207.807 27.4922H209.096V26.7812C209.096 26.3333 208.96 25.9766 208.689 25.7109C208.424 25.4453 208.036 25.3125 207.525 25.3125C207.234 25.3125 206.976 25.349 206.752 25.4219C206.528 25.4896 206.327 25.5885 206.15 25.7188L205.971 26.8594H204.525L204.51 24.7734C204.926 24.5026 205.39 24.2891 205.9 24.1328C206.411 23.9714 206.979 23.8906 207.604 23.8906C208.676 23.8906 209.52 24.1432 210.135 24.6484C210.755 25.1484 211.064 25.8672 211.064 26.8047V30.5312C211.064 30.6458 211.064 30.7578 211.064 30.8672C211.07 30.9766 211.077 31.0833 211.088 31.1875L211.947 31.2969V32.5H209.377C209.325 32.3177 209.275 32.1406 209.229 31.9688C209.187 31.7969 209.156 31.625 209.135 31.4531C208.854 31.8073 208.512 32.099 208.111 32.3281C207.715 32.5521 207.268 32.6641 206.768 32.6641ZM207.213 31.1406C207.609 31.1406 207.979 31.0495 208.322 30.8672C208.666 30.6797 208.924 30.4453 209.096 30.1641V28.75H207.783C207.195 28.75 206.749 28.888 206.447 29.1641C206.15 29.4349 206.002 29.7526 206.002 30.1172C206.002 30.4453 206.106 30.6979 206.314 30.875C206.523 31.0521 206.822 31.1406 207.213 31.1406ZM216.822 32.6641C216.031 32.6641 215.343 32.4844 214.76 32.125C214.182 31.7604 213.734 31.2604 213.416 30.625C213.104 29.9844 212.947 29.2474 212.947 28.4141V28.1406C212.947 27.3229 213.104 26.5938 213.416 25.9531C213.729 25.3125 214.174 24.8099 214.752 24.4453C215.335 24.0755 216.023 23.8906 216.814 23.8906C217.538 23.8906 218.169 24.0078 218.705 24.2422C219.242 24.4714 219.682 24.7578 220.025 25.1016L220.033 27.3594H218.533L218.244 25.8672C218.098 25.7161 217.913 25.5964 217.689 25.5078C217.465 25.4141 217.221 25.3672 216.955 25.3672C216.523 25.3672 216.153 25.4844 215.846 25.7188C215.544 25.9531 215.312 26.2786 215.15 26.6953C214.994 27.1068 214.916 27.5885 214.916 28.1406V28.4141C214.916 29.0078 214.997 29.5078 215.158 29.9141C215.32 30.3203 215.544 30.6276 215.83 30.8359C216.122 31.0443 216.455 31.1484 216.83 31.1484C217.283 31.1484 217.65 31.026 217.932 30.7812C218.218 30.5365 218.406 30.1979 218.494 29.7656H220.197L220.221 29.8125C220.158 30.3646 219.994 30.8568 219.729 31.2891C219.468 31.7161 219.098 32.0521 218.619 32.2969C218.145 32.5417 217.546 32.6641 216.822 32.6641ZM221.26 32.5V31.2969L222.432 31.0625V25.4922L221.189 25.2578V24.0469H224.4V31.0625L225.564 31.2969V32.5H221.26ZM222.354 22.1328V20.3125H224.4V22.1328H222.354ZM226.354 32.5V31.2969L227.533 31.0625V21.7578L226.283 21.5234V20.3125H229.494V31.0625L230.674 31.2969V32.5H226.354ZM231.51 32.5V31.2969L232.682 31.0625V25.4922L231.439 25.2578V24.0469H234.65V31.0625L235.814 31.2969V32.5H231.51ZM232.604 22.1328V20.3125H234.65V22.1328H232.604ZM239.893 32.6484C239.174 32.6484 238.614 32.4479 238.213 32.0469C237.812 31.6406 237.611 30.9948 237.611 30.1094V25.4531H236.377V24.0469H237.611V21.9922H239.572V24.0469H241.244V25.4531H239.572V30.1094C239.572 30.4688 239.645 30.7318 239.791 30.8984C239.942 31.0599 240.145 31.1406 240.4 31.1406C240.546 31.1406 240.708 31.1276 240.885 31.1016C241.067 31.0755 241.213 31.0495 241.322 31.0234L241.525 32.4062C241.296 32.474 241.033 32.5312 240.736 32.5781C240.445 32.625 240.163 32.6484 239.893 32.6484ZM245.236 32.6641C244.377 32.6641 243.708 32.4427 243.229 32C242.749 31.5573 242.51 30.9479 242.51 30.1719C242.51 29.6406 242.656 29.1745 242.947 28.7734C243.239 28.3724 243.666 28.0599 244.229 27.8359C244.791 27.6068 245.473 27.4922 246.275 27.4922H247.564V26.7812C247.564 26.3333 247.429 25.9766 247.158 25.7109C246.893 25.4453 246.505 25.3125 245.994 25.3125C245.702 25.3125 245.445 25.349 245.221 25.4219C244.997 25.4896 244.796 25.5885 244.619 25.7188L244.439 26.8594H242.994L242.979 24.7734C243.395 24.5026 243.859 24.2891 244.369 24.1328C244.88 23.9714 245.447 23.8906 246.072 23.8906C247.145 23.8906 247.989 24.1432 248.604 24.6484C249.223 25.1484 249.533 25.8672 249.533 26.8047V30.5312C249.533 30.6458 249.533 30.7578 249.533 30.8672C249.538 30.9766 249.546 31.0833 249.557 31.1875L250.416 31.2969V32.5H247.846C247.794 32.3177 247.744 32.1406 247.697 31.9688C247.656 31.7969 247.624 31.625 247.604 31.4531C247.322 31.8073 246.981 32.099 246.58 32.3281C246.184 32.5521 245.736 32.6641 245.236 32.6641ZM245.682 31.1406C246.077 31.1406 246.447 31.0495 246.791 30.8672C247.135 30.6797 247.393 30.4453 247.564 30.1641V28.75H246.252C245.663 28.75 245.218 28.888 244.916 29.1641C244.619 29.4349 244.471 29.7526 244.471 30.1172C244.471 30.4453 244.575 30.6979 244.783 30.875C244.992 31.0521 245.291 31.1406 245.682 31.1406ZM255.291 32.6641C254.499 32.6641 253.812 32.4844 253.229 32.125C252.65 31.7604 252.202 31.2604 251.885 30.625C251.572 29.9844 251.416 29.2474 251.416 28.4141V28.1406C251.416 27.3229 251.572 26.5938 251.885 25.9531C252.197 25.3125 252.643 24.8099 253.221 24.4453C253.804 24.0755 254.492 23.8906 255.283 23.8906C256.007 23.8906 256.637 24.0078 257.174 24.2422C257.71 24.4714 258.15 24.7578 258.494 25.1016L258.502 27.3594H257.002L256.713 25.8672C256.567 25.7161 256.382 25.5964 256.158 25.5078C255.934 25.4141 255.689 25.3672 255.424 25.3672C254.992 25.3672 254.622 25.4844 254.314 25.7188C254.012 25.9531 253.781 26.2786 253.619 26.6953C253.463 27.1068 253.385 27.5885 253.385 28.1406V28.4141C253.385 29.0078 253.465 29.5078 253.627 29.9141C253.788 30.3203 254.012 30.6276 254.299 30.8359C254.59 31.0443 254.924 31.1484 255.299 31.1484C255.752 31.1484 256.119 31.026 256.4 30.7812C256.687 30.5365 256.874 30.1979 256.963 29.7656H258.666L258.689 29.8125C258.627 30.3646 258.463 30.8568 258.197 31.2891C257.937 31.7161 257.567 32.0521 257.088 32.2969C256.614 32.5417 256.015 32.6641 255.291 32.6641ZM259.729 32.5V31.2969L260.9 31.0625V25.4922L259.658 25.2578V24.0469H262.869V31.0625L264.033 31.2969V32.5H259.729ZM260.822 22.1328V20.3125H262.869V22.1328H260.822ZM268.869 32.6641C268.057 32.6641 267.359 32.4818 266.775 32.1172C266.192 31.7526 265.744 31.2474 265.432 30.6016C265.119 29.9505 264.963 29.2031 264.963 28.3594V28.1953C264.963 27.3568 265.119 26.6146 265.432 25.9688C265.744 25.3229 266.192 24.8151 266.775 24.4453C267.359 24.0755 268.051 23.8906 268.854 23.8906C269.666 23.8906 270.364 24.0755 270.947 24.4453C271.531 24.8099 271.979 25.3151 272.291 25.9609C272.604 26.6068 272.76 27.3516 272.76 28.1953V28.3594C272.76 29.2031 272.604 29.9505 272.291 30.6016C271.979 31.2474 271.531 31.7526 270.947 32.1172C270.369 32.4818 269.676 32.6641 268.869 32.6641ZM268.869 31.1484C269.307 31.1484 269.666 31.0312 269.947 30.7969C270.234 30.5573 270.447 30.2292 270.588 29.8125C270.729 29.3906 270.799 28.9062 270.799 28.3594V28.1953C270.799 27.6536 270.729 27.1745 270.588 26.7578C270.447 26.3411 270.234 26.013 269.947 25.7734C269.661 25.5339 269.296 25.4141 268.854 25.4141C268.421 25.4141 268.062 25.5339 267.775 25.7734C267.489 26.013 267.275 26.3411 267.135 26.7578C266.999 27.1745 266.932 27.6536 266.932 28.1953V28.3594C266.932 28.9062 266.999 29.3906 267.135 29.8125C267.275 30.2292 267.489 30.5573 267.775 30.7969C268.067 31.0312 268.432 31.1484 268.869 31.1484ZM267.674 22.4375L269.182 20.3125H271.33L271.346 20.3594L269.213 22.4375H267.736H267.674ZM273.799 32.5V31.2969L274.971 31.0625V25.4922L273.736 25.2578V24.0469H276.783L276.885 25.2734C277.166 24.8359 277.515 24.4974 277.932 24.2578C278.354 24.013 278.83 23.8906 279.361 23.8906C280.231 23.8906 280.908 24.1589 281.393 24.6953C281.877 25.2266 282.119 26.0599 282.119 27.1953V31.0625L283.291 31.2969V32.5H279.049V31.2969L280.15 31.0625V27.2109C280.15 26.5703 280.023 26.1172 279.768 25.8516C279.512 25.5807 279.132 25.4453 278.627 25.4453C278.247 25.4453 277.913 25.5312 277.627 25.7031C277.346 25.8698 277.117 26.1042 276.939 26.4062V31.0625L278.01 31.2969V32.5H273.799ZM197.666 50.6641C196.984 50.6641 196.4 50.4922 195.916 50.1484C195.432 49.8047 195.059 49.3255 194.799 48.7109C194.544 48.0911 194.416 47.3698 194.416 46.5469V46.3828C194.416 45.4818 194.544 44.6953 194.799 44.0234C195.059 43.3516 195.432 42.8281 195.916 42.4531C196.406 42.0781 196.986 41.8906 197.658 41.8906C198.143 41.8906 198.564 41.9844 198.924 42.1719C199.288 42.3542 199.601 42.6172 199.861 42.9609V39.7578L198.619 39.5234V38.3125H199.861H201.83V49.0625L203.002 49.2969V50.5H200.127L199.971 49.4766C199.705 49.8672 199.38 50.1641 198.994 50.3672C198.614 50.5651 198.171 50.6641 197.666 50.6641ZM198.221 49.1094C198.596 49.1094 198.919 49.0286 199.189 48.8672C199.46 48.7005 199.684 48.4609 199.861 48.1484V44.4219C199.689 44.1198 199.465 43.8828 199.189 43.7109C198.919 43.5339 198.601 43.4453 198.236 43.4453C197.809 43.4453 197.458 43.5703 197.182 43.8203C196.911 44.0651 196.71 44.4089 196.58 44.8516C196.45 45.2891 196.385 45.7995 196.385 46.3828V46.5469C196.385 47.3281 196.528 47.9505 196.814 48.4141C197.106 48.8776 197.575 49.1094 198.221 49.1094ZM207.799 50.6641C207.002 50.6641 206.307 50.487 205.713 50.1328C205.124 49.7734 204.666 49.2786 204.338 48.6484C204.015 48.0182 203.854 47.2969 203.854 46.4844V46.1562C203.854 45.3333 204.012 44.6016 204.33 43.9609C204.653 43.3151 205.096 42.8099 205.658 42.4453C206.221 42.0755 206.861 41.8906 207.58 41.8906C208.346 41.8906 208.986 42.0443 209.502 42.3516C210.023 42.6589 210.416 43.0964 210.682 43.6641C210.947 44.2266 211.08 44.9036 211.08 45.6953V46.8203H205.893L205.877 46.8594C205.898 47.3021 205.989 47.6953 206.15 48.0391C206.317 48.3828 206.551 48.6536 206.854 48.8516C207.161 49.0495 207.533 49.1484 207.971 49.1484C208.429 49.1484 208.846 49.0859 209.221 48.9609C209.596 48.8359 209.942 48.6589 210.26 48.4297L210.877 49.6641C210.544 49.9453 210.119 50.1823 209.604 50.375C209.088 50.5677 208.486 50.6641 207.799 50.6641ZM205.924 45.4375H209.197V45.2344C209.197 44.8646 209.14 44.5417 209.025 44.2656C208.916 43.9844 208.742 43.7656 208.502 43.6094C208.268 43.4531 207.968 43.375 207.604 43.375C207.286 43.375 207.007 43.4635 206.768 43.6406C206.528 43.8177 206.335 44.0599 206.189 44.3672C206.049 44.6693 205.952 45.013 205.9 45.3984L205.924 45.4375ZM212.088 50.5V49.2969L213.268 49.0625V39.7578L212.018 39.5234V38.3125H215.229V49.0625L216.408 49.2969V50.5H212.088ZM226.549 50.6641C225.429 50.6641 224.471 50.4271 223.674 49.9531C222.882 49.474 222.275 48.8073 221.854 47.9531C221.437 47.0938 221.229 46.0964 221.229 44.9609V44.6719C221.229 43.5625 221.437 42.5807 221.854 41.7266C222.27 40.8672 222.867 40.1927 223.643 39.7031C224.419 39.2083 225.346 38.9609 226.424 38.9609C227.179 38.9609 227.88 39.0729 228.525 39.2969C229.171 39.5208 229.734 39.8359 230.213 40.2422V42.8672H228.713L228.51 41.1094C228.338 40.9844 228.148 40.8776 227.939 40.7891C227.731 40.7005 227.502 40.6328 227.252 40.5859C227.007 40.5391 226.739 40.5156 226.447 40.5156C225.765 40.5156 225.179 40.6875 224.689 41.0312C224.205 41.375 223.835 41.8568 223.58 42.4766C223.325 43.0964 223.197 43.8229 223.197 44.6562V44.9609C223.197 45.8255 223.333 46.5703 223.604 47.1953C223.874 47.8151 224.262 48.2917 224.768 48.625C225.278 48.9583 225.887 49.125 226.596 49.125C226.939 49.125 227.278 49.0859 227.611 49.0078C227.95 48.9245 228.247 48.8177 228.502 48.6875L228.713 47.0938H230.197V49.7031C229.76 49.9896 229.223 50.2214 228.588 50.3984C227.958 50.5755 227.278 50.6641 226.549 50.6641ZM235.416 50.6641C234.604 50.6641 233.906 50.4818 233.322 50.1172C232.739 49.7526 232.291 49.2474 231.979 48.6016C231.666 47.9505 231.51 47.2031 231.51 46.3594V46.1953C231.51 45.3568 231.666 44.6146 231.979 43.9688C232.291 43.3229 232.739 42.8151 233.322 42.4453C233.906 42.0755 234.598 41.8906 235.4 41.8906C236.213 41.8906 236.911 42.0755 237.494 42.4453C238.077 42.8099 238.525 43.3151 238.838 43.9609C239.15 44.6068 239.307 45.3516 239.307 46.1953V46.3594C239.307 47.2031 239.15 47.9505 238.838 48.6016C238.525 49.2474 238.077 49.7526 237.494 50.1172C236.916 50.4818 236.223 50.6641 235.416 50.6641ZM235.416 49.1484C235.854 49.1484 236.213 49.0312 236.494 48.7969C236.781 48.5573 236.994 48.2292 237.135 47.8125C237.275 47.3906 237.346 46.9062 237.346 46.3594V46.1953C237.346 45.6536 237.275 45.1745 237.135 44.7578C236.994 44.3411 236.781 44.013 236.494 43.7734C236.208 43.5339 235.843 43.4141 235.4 43.4141C234.968 43.4141 234.609 43.5339 234.322 43.7734C234.036 44.013 233.822 44.3411 233.682 44.7578C233.546 45.1745 233.479 45.6536 233.479 46.1953V46.3594C233.479 46.9062 233.546 47.3906 233.682 47.8125C233.822 48.2292 234.036 48.5573 234.322 48.7969C234.614 49.0312 234.979 49.1484 235.416 49.1484ZM240.346 50.5V49.2969L241.525 49.0625V43.4922L240.283 43.2578V42.0469H243.33L243.424 43.1562C243.7 42.7552 244.044 42.4453 244.455 42.2266C244.872 42.0026 245.354 41.8906 245.9 41.8906C246.452 41.8906 246.924 42.0156 247.314 42.2656C247.71 42.5104 248.01 42.8828 248.213 43.3828C248.473 42.9193 248.814 42.5547 249.236 42.2891C249.663 42.0234 250.163 41.8906 250.736 41.8906C251.585 41.8906 252.252 42.1797 252.736 42.7578C253.226 43.3359 253.471 44.2109 253.471 45.3828V49.0625L254.65 49.2969V50.5H250.393V49.2969L251.502 49.0625V45.375C251.502 44.6615 251.382 44.1615 251.143 43.875C250.903 43.5885 250.551 43.4453 250.088 43.4453C249.656 43.4453 249.299 43.5833 249.018 43.8594C248.742 44.1354 248.562 44.487 248.479 44.9141V49.0625L249.549 49.2969V50.5H245.447V49.2969L246.518 49.0625V45.375C246.518 44.6875 246.395 44.1953 246.15 43.8984C245.906 43.5964 245.551 43.4453 245.088 43.4453C244.702 43.4453 244.377 43.5234 244.111 43.6797C243.851 43.8359 243.643 44.0573 243.486 44.3438V49.0625L244.588 49.2969V50.5H240.346ZM259.424 50.6641C258.627 50.6641 257.932 50.487 257.338 50.1328C256.749 49.7734 256.291 49.2786 255.963 48.6484C255.64 48.0182 255.479 47.2969 255.479 46.4844V46.1562C255.479 45.3333 255.637 44.6016 255.955 43.9609C256.278 43.3151 256.721 42.8099 257.283 42.4453C257.846 42.0755 258.486 41.8906 259.205 41.8906C259.971 41.8906 260.611 42.0443 261.127 42.3516C261.648 42.6589 262.041 43.0964 262.307 43.6641C262.572 44.2266 262.705 44.9036 262.705 45.6953V46.8203H257.518L257.502 46.8594C257.523 47.3021 257.614 47.6953 257.775 48.0391C257.942 48.3828 258.176 48.6536 258.479 48.8516C258.786 49.0495 259.158 49.1484 259.596 49.1484C260.054 49.1484 260.471 49.0859 260.846 48.9609C261.221 48.8359 261.567 48.6589 261.885 48.4297L262.502 49.6641C262.169 49.9453 261.744 50.1823 261.229 50.375C260.713 50.5677 260.111 50.6641 259.424 50.6641ZM257.549 45.4375H260.822V45.2344C260.822 44.8646 260.765 44.5417 260.65 44.2656C260.541 43.9844 260.367 43.7656 260.127 43.6094C259.893 43.4531 259.593 43.375 259.229 43.375C258.911 43.375 258.632 43.4635 258.393 43.6406C258.153 43.8177 257.96 44.0599 257.814 44.3672C257.674 44.6693 257.577 45.013 257.525 45.3984L257.549 45.4375ZM263.908 50.5V49.2969L265.08 49.0625V43.4922L263.846 43.2578V42.0469H266.893L266.994 43.1094L267.01 43.2812C267.234 42.8333 267.507 42.4896 267.83 42.25C268.158 42.0104 268.541 41.8906 268.979 41.8906C269.124 41.8906 269.278 41.9036 269.439 41.9297C269.606 41.9557 269.742 41.9844 269.846 42.0156L269.619 43.8359L268.518 43.7734C268.158 43.7526 267.861 43.8229 267.627 43.9844C267.398 44.1458 267.205 44.3698 267.049 44.6562V49.0625L268.221 49.2969V50.5H263.908ZM274.4 50.6641C273.609 50.6641 272.921 50.4844 272.338 50.125C271.76 49.7604 271.312 49.2604 270.994 48.625C270.682 47.9844 270.525 47.2474 270.525 46.4141V46.1406C270.525 45.3229 270.682 44.5938 270.994 43.9531C271.307 43.3125 271.752 42.8099 272.33 42.4453C272.913 42.0755 273.601 41.8906 274.393 41.8906C275.117 41.8906 275.747 42.0078 276.283 42.2422C276.82 42.4714 277.26 42.7578 277.604 43.1016L277.611 45.3594H276.111L275.822 43.8672C275.676 43.7161 275.492 43.5964 275.268 43.5078C275.044 43.4141 274.799 43.3672 274.533 43.3672C274.101 43.3672 273.731 43.4844 273.424 43.7188C273.122 43.9531 272.89 44.2786 272.729 44.6953C272.572 45.1068 272.494 45.5885 272.494 46.1406V46.4141C272.494 47.0078 272.575 47.5078 272.736 47.9141C272.898 48.3203 273.122 48.6276 273.408 48.8359C273.7 49.0443 274.033 49.1484 274.408 49.1484C274.861 49.1484 275.229 49.026 275.51 48.7812C275.796 48.5365 275.984 48.1979 276.072 47.7656H277.775L277.799 47.8125C277.736 48.3646 277.572 48.8568 277.307 49.2891C277.046 49.7161 276.676 50.0521 276.197 50.2969C275.723 50.5417 275.124 50.6641 274.4 50.6641ZM278.838 50.5V49.2969L280.01 49.0625V43.4922L278.768 43.2578V42.0469H281.979V49.0625L283.143 49.2969V50.5H278.838ZM279.932 40.1328V38.3125H281.979V40.1328H279.932ZM287.979 50.6641C287.166 50.6641 286.468 50.4818 285.885 50.1172C285.301 49.7526 284.854 49.2474 284.541 48.6016C284.229 47.9505 284.072 47.2031 284.072 46.3594V46.1953C284.072 45.3568 284.229 44.6146 284.541 43.9688C284.854 43.3229 285.301 42.8151 285.885 42.4453C286.468 42.0755 287.161 41.8906 287.963 41.8906C288.775 41.8906 289.473 42.0755 290.057 42.4453C290.64 42.8099 291.088 43.3151 291.4 43.9609C291.713 44.6068 291.869 45.3516 291.869 46.1953V46.3594C291.869 47.2031 291.713 47.9505 291.4 48.6016C291.088 49.2474 290.64 49.7526 290.057 50.1172C289.479 50.4818 288.786 50.6641 287.979 50.6641ZM287.979 49.1484C288.416 49.1484 288.775 49.0312 289.057 48.7969C289.343 48.5573 289.557 48.2292 289.697 47.8125C289.838 47.3906 289.908 46.9062 289.908 46.3594V46.1953C289.908 45.6536 289.838 45.1745 289.697 44.7578C289.557 44.3411 289.343 44.013 289.057 43.7734C288.77 43.5339 288.406 43.4141 287.963 43.4141C287.531 43.4141 287.171 43.5339 286.885 43.7734C286.598 44.013 286.385 44.3411 286.244 44.7578C286.109 45.1745 286.041 45.6536 286.041 46.1953V46.3594C286.041 46.9062 286.109 47.3906 286.244 47.8125C286.385 48.2292 286.598 48.5573 286.885 48.7969C287.176 49.0312 287.541 49.1484 287.979 49.1484ZM198.783 68.6641C198.007 68.6641 197.286 68.5677 196.619 68.375C195.952 68.1823 195.304 67.862 194.674 67.4141V64.7969H196.197L196.447 66.4922C196.723 66.6901 197.062 66.849 197.463 66.9688C197.869 67.0885 198.309 67.1484 198.783 67.1484C199.247 67.1484 199.635 67.0833 199.947 66.9531C200.265 66.8177 200.507 66.6302 200.674 66.3906C200.84 66.151 200.924 65.8672 200.924 65.5391C200.924 65.237 200.851 64.9688 200.705 64.7344C200.559 64.5 200.317 64.2917 199.979 64.1094C199.64 63.9219 199.182 63.75 198.604 63.5938C197.755 63.3646 197.044 63.0938 196.471 62.7812C195.903 62.4688 195.473 62.0938 195.182 61.6562C194.895 61.2188 194.752 60.7031 194.752 60.1094C194.752 59.5 194.916 58.9609 195.244 58.4922C195.577 58.0234 196.038 57.6536 196.627 57.3828C197.215 57.112 197.895 56.974 198.666 56.9688C199.51 56.9583 200.255 57.0677 200.9 57.2969C201.551 57.526 202.101 57.8255 202.549 58.1953V60.6406H201.057L200.775 59.0469C200.562 58.8958 200.283 58.7682 199.939 58.6641C199.601 58.5547 199.2 58.5 198.736 58.5C198.34 58.5 197.992 58.5651 197.689 58.6953C197.387 58.8255 197.15 59.0104 196.979 59.25C196.807 59.4844 196.721 59.7656 196.721 60.0938C196.721 60.3802 196.796 60.6302 196.947 60.8438C197.098 61.0573 197.351 61.2526 197.705 61.4297C198.059 61.6016 198.538 61.776 199.143 61.9531C200.377 62.2812 201.312 62.7344 201.947 63.3125C202.583 63.8906 202.9 64.6276 202.9 65.5234C202.9 66.1536 202.729 66.7057 202.385 67.1797C202.046 67.6484 201.567 68.013 200.947 68.2734C200.333 68.5339 199.611 68.6641 198.783 68.6641ZM207.932 68.6641C207.119 68.6641 206.421 68.4818 205.838 68.1172C205.255 67.7526 204.807 67.2474 204.494 66.6016C204.182 65.9505 204.025 65.2031 204.025 64.3594V64.1953C204.025 63.3568 204.182 62.6146 204.494 61.9688C204.807 61.3229 205.255 60.8151 205.838 60.4453C206.421 60.0755 207.114 59.8906 207.916 59.8906C208.729 59.8906 209.426 60.0755 210.01 60.4453C210.593 60.8099 211.041 61.3151 211.354 61.9609C211.666 62.6068 211.822 63.3516 211.822 64.1953V64.3594C211.822 65.2031 211.666 65.9505 211.354 66.6016C211.041 67.2474 210.593 67.7526 210.01 68.1172C209.432 68.4818 208.739 68.6641 207.932 68.6641ZM207.932 67.1484C208.369 67.1484 208.729 67.0312 209.01 66.7969C209.296 66.5573 209.51 66.2292 209.65 65.8125C209.791 65.3906 209.861 64.9062 209.861 64.3594V64.1953C209.861 63.6536 209.791 63.1745 209.65 62.7578C209.51 62.3411 209.296 62.013 209.01 61.7734C208.723 61.5339 208.359 61.4141 207.916 61.4141C207.484 61.4141 207.124 61.5339 206.838 61.7734C206.551 62.013 206.338 62.3411 206.197 62.7578C206.062 63.1745 205.994 63.6536 205.994 64.1953V64.3594C205.994 64.9062 206.062 65.3906 206.197 65.8125C206.338 66.2292 206.551 66.5573 206.838 66.7969C207.13 67.0312 207.494 67.1484 207.932 67.1484ZM216.455 68.6641C215.851 68.6641 215.286 68.6068 214.76 68.4922C214.239 68.3724 213.715 68.1979 213.189 67.9688L213.166 65.7344H214.58L214.877 66.9531C215.101 67.0521 215.33 67.1302 215.564 67.1875C215.804 67.2396 216.07 67.2656 216.361 67.2656C216.924 67.2656 217.32 67.1667 217.549 66.9688C217.783 66.7708 217.9 66.526 217.9 66.2344C217.9 65.9531 217.778 65.7135 217.533 65.5156C217.294 65.3125 216.833 65.138 216.15 64.9922C215.14 64.7734 214.395 64.4557 213.916 64.0391C213.442 63.6172 213.205 63.0703 213.205 62.3984C213.205 61.9349 213.327 61.5156 213.572 61.1406C213.822 60.7656 214.187 60.4661 214.666 60.2422C215.15 60.013 215.744 59.8984 216.447 59.8984C217.088 59.8984 217.656 59.9661 218.15 60.1016C218.65 60.2318 219.075 60.4062 219.424 60.625L219.471 62.7734H218.072L217.83 61.6562C217.669 61.5417 217.481 61.4531 217.268 61.3906C217.054 61.3281 216.809 61.2969 216.533 61.2969C216.101 61.2969 215.76 61.3932 215.51 61.5859C215.26 61.7734 215.135 62.0104 215.135 62.2969C215.135 62.4635 215.174 62.6146 215.252 62.75C215.335 62.8854 215.492 63.0104 215.721 63.125C215.955 63.2344 216.296 63.3411 216.744 63.4453C217.843 63.7005 218.63 64.0339 219.104 64.4453C219.577 64.8568 219.814 65.401 219.814 66.0781C219.814 66.8333 219.538 67.4531 218.986 67.9375C218.434 68.4219 217.59 68.6641 216.455 68.6641ZM224.143 68.6484C223.424 68.6484 222.864 68.4479 222.463 68.0469C222.062 67.6406 221.861 66.9948 221.861 66.1094V61.4531H220.627V60.0469H221.861V57.9922H223.822V60.0469H225.494V61.4531H223.822V66.1094C223.822 66.4688 223.895 66.7318 224.041 66.8984C224.192 67.0599 224.395 67.1406 224.65 67.1406C224.796 67.1406 224.958 67.1276 225.135 67.1016C225.317 67.0755 225.463 67.0495 225.572 67.0234L225.775 68.4062C225.546 68.474 225.283 68.5312 224.986 68.5781C224.695 68.625 224.413 68.6484 224.143 68.6484ZM230.486 68.6641C229.689 68.6641 228.994 68.487 228.4 68.1328C227.812 67.7734 227.354 67.2786 227.025 66.6484C226.702 66.0182 226.541 65.2969 226.541 64.4844V64.1562C226.541 63.3333 226.7 62.6016 227.018 61.9609C227.34 61.3151 227.783 60.8099 228.346 60.4453C228.908 60.0755 229.549 59.8906 230.268 59.8906C231.033 59.8906 231.674 60.0443 232.189 60.3516C232.71 60.6589 233.104 61.0964 233.369 61.6641C233.635 62.2266 233.768 62.9036 233.768 63.6953V64.8203H228.58L228.564 64.8594C228.585 65.3021 228.676 65.6953 228.838 66.0391C229.005 66.3828 229.239 66.6536 229.541 66.8516C229.848 67.0495 230.221 67.1484 230.658 67.1484C231.117 67.1484 231.533 67.0859 231.908 66.9609C232.283 66.8359 232.63 66.6589 232.947 66.4297L233.564 67.6641C233.231 67.9453 232.807 68.1823 232.291 68.375C231.775 68.5677 231.174 68.6641 230.486 68.6641ZM228.611 63.4375H231.885V63.2344C231.885 62.8646 231.827 62.5417 231.713 62.2656C231.604 61.9844 231.429 61.7656 231.189 61.6094C230.955 61.4531 230.656 61.375 230.291 61.375C229.973 61.375 229.695 61.4635 229.455 61.6406C229.215 61.8177 229.023 62.0599 228.877 62.3672C228.736 62.6693 228.64 63.013 228.588 63.3984L228.611 63.4375ZM234.83 68.5V67.2969L236.002 67.0625V61.4922L234.768 61.2578V60.0469H237.814L237.916 61.2734C238.197 60.8359 238.546 60.4974 238.963 60.2578C239.385 60.013 239.861 59.8906 240.393 59.8906C241.262 59.8906 241.939 60.1589 242.424 60.6953C242.908 61.2266 243.15 62.0599 243.15 63.1953V67.0625L244.322 67.2969V68.5H240.08V67.2969L241.182 67.0625V63.2109C241.182 62.5703 241.054 62.1172 240.799 61.8516C240.544 61.5807 240.163 61.4453 239.658 61.4453C239.278 61.4453 238.945 61.5312 238.658 61.7031C238.377 61.8698 238.148 62.1042 237.971 62.4062V67.0625L239.041 67.2969V68.5H234.83ZM245.15 68.5V67.2969L246.322 67.0625V61.4922L245.08 61.2578V60.0469H248.291V67.0625L249.455 67.2969V68.5H245.15ZM246.244 58.1328V56.3125H248.291V58.1328H246.244ZM255.104 68.6641C254.572 68.6641 254.114 68.5599 253.729 68.3516C253.343 68.1432 253.02 67.8411 252.76 67.4453L252.604 68.5H250.908V57.7578L249.666 57.5234V56.3125H252.869V60.9922C253.124 60.6328 253.437 60.3594 253.807 60.1719C254.182 59.9844 254.617 59.8906 255.111 59.8906C255.804 59.8906 256.39 60.0781 256.869 60.4531C257.354 60.8229 257.723 61.3438 257.979 62.0156C258.234 62.6875 258.361 63.4766 258.361 64.3828V64.5469C258.361 65.3698 258.234 66.0911 257.979 66.7109C257.723 67.3307 257.354 67.8125 256.869 68.1562C256.385 68.4948 255.796 68.6641 255.104 68.6641ZM254.541 67.1094C255.187 67.1094 255.656 66.8828 255.947 66.4297C256.244 65.9714 256.393 65.3438 256.393 64.5469V64.3828C256.393 63.7891 256.327 63.2734 256.197 62.8359C256.067 62.3932 255.867 62.0521 255.596 61.8125C255.325 61.5677 254.976 61.4453 254.549 61.4453C254.153 61.4453 253.814 61.5417 253.533 61.7344C253.257 61.9219 253.036 62.1771 252.869 62.5V66.1094C253.041 66.4271 253.265 66.6745 253.541 66.8516C253.822 67.0234 254.156 67.1094 254.541 67.1094ZM259.229 68.5V67.2969L260.408 67.0625V57.7578L259.158 57.5234V56.3125H262.369V67.0625L263.549 67.2969V68.5H259.229ZM268.252 68.6641C267.455 68.6641 266.76 68.487 266.166 68.1328C265.577 67.7734 265.119 67.2786 264.791 66.6484C264.468 66.0182 264.307 65.2969 264.307 64.4844V64.1562C264.307 63.3333 264.465 62.6016 264.783 61.9609C265.106 61.3151 265.549 60.8099 266.111 60.4453C266.674 60.0755 267.314 59.8906 268.033 59.8906C268.799 59.8906 269.439 60.0443 269.955 60.3516C270.476 60.6589 270.869 61.0964 271.135 61.6641C271.4 62.2266 271.533 62.9036 271.533 63.6953V64.8203H266.346L266.33 64.8594C266.351 65.3021 266.442 65.6953 266.604 66.0391C266.77 66.3828 267.005 66.6536 267.307 66.8516C267.614 67.0495 267.986 67.1484 268.424 67.1484C268.882 67.1484 269.299 67.0859 269.674 66.9609C270.049 66.8359 270.395 66.6589 270.713 66.4297L271.33 67.6641C270.997 67.9453 270.572 68.1823 270.057 68.375C269.541 68.5677 268.939 68.6641 268.252 68.6641ZM266.377 63.4375H269.65V63.2344C269.65 62.8646 269.593 62.5417 269.479 62.2656C269.369 61.9844 269.195 61.7656 268.955 61.6094C268.721 61.4531 268.421 61.375 268.057 61.375C267.739 61.375 267.46 61.4635 267.221 61.6406C266.981 61.8177 266.788 62.0599 266.643 62.3672C266.502 62.6693 266.406 63.013 266.354 63.3984L266.377 63.4375Z" fill="white"/>
</svg>
