<svg width="30" height="30" fill="none" xmlns="http://www.w3.org/2000/svg"><path d="M20.4 4.8h-1.2V3h-8.4v1.8H9.6v-3h10.8v3Zm-3 24h-4.2v-6h4.2v6Zm-3-1.2h1.8V24h-1.8v3.6Zm0-12h-1.2v-1.8H12v1.8h-1.2v-3h3.6v3Zm0 4.8h-1.2v-1.8H12v1.8h-1.2v-3h3.6v3Zm5.4-4.8h-1.2v-1.8h-1.2v1.8h-1.2v-3h3.6v3Zm-5.4-4.8h-1.2V9H12v1.8h-1.2v-3h3.6v3Zm5.4 0h-1.2V9h-1.2v1.8h-1.2v-3h3.6v3Zm0 9.6h-1.2v-1.8h-1.2v1.8h-1.2v-3h3.6v3ZM6.6 28.8H1.8V11.4h4.8v1.2H3v15h3.6v1.2Z" fill="#091242"/><path d="M4.8 12H3.6V9h3v1.2H4.8V12Zm23.4 16.8H24v-1.2h3v-9h-3v-1.2h4.2v11.4Z" fill="#091242"/><path d="M27 18h-1.2v-1.8H24V15h3v3Zm-4.2 10.8h-15V4.2h15v24.6ZM9 27.6h12.6V5.4H9v22.2Z" fill="#091242"/></svg>