<svg width="53" height="58" fill="none" xmlns="http://www.w3.org/2000/svg"><path stroke="#fff" stroke-linecap="round" stroke-linejoin="round" d="M11.02 28h6v6h-6zm0 13h6v6h-6zm13-13h6v6h-6zm0 13h6v6h-6z"/><path fill="#FF7A00" stroke="#fff" stroke-linecap="round" stroke-linejoin="round" d="M36.02 28h6v6h-6z"/><path stroke="#fff" stroke-linecap="round" stroke-linejoin="round" d="M36.02 41h6v6h-6z"/><path d="M52.02 20h-51V9a3 3 0 0 1 3-3h45a3 3 0 0 1 3 3v11Z" fill="#FF7A00"/><path d="M50.02 5.667H3.352A2.333 2.333 0 0 0 1.02 8v46.667A2.333 2.333 0 0 0 3.353 57h46.666a2.333 2.333 0 0 0 2.334-2.333V8a2.333 2.333 0 0 0-2.334-2.333ZM40.688 1v9.333M12.688 1v9.333M1.02 19.667h51.333" stroke="#fff" stroke-linecap="round" stroke-linejoin="round"/></svg>