<svg width="30" height="30" viewBox="0 0 30 30" fill="none" xmlns="http://www.w3.org/2000/svg">
<path d="M27 24.6H2.99995C1.97995 24.6 1.19995 23.82 1.19995 22.8V6.6C1.19995 5.58 1.97995 4.8 2.99995 4.8H27C28.02 4.8 28.8 5.58 28.8 6.6V22.8C28.8 23.82 28.02 24.6 27 24.6ZM2.99995 6C2.63995 6 2.39995 6.24 2.39995 6.6V22.8C2.39995 23.16 2.63995 23.4 2.99995 23.4H27C27.36 23.4 27.6 23.16 27.6 22.8V6.6C27.6 6.24 27.36 6 27 6H2.99995Z" fill="#091242"/>
<path d="M14.9999 17.46C13.7399 17.46 12.5399 16.98 11.5799 16.08L3.17993 7.62L4.01993 6.78L12.4199 15.24C13.7999 16.62 16.1399 16.62 17.5199 15.24L25.9799 6.78L26.8199 7.62L18.3599 16.08C17.4599 16.98 16.1999 17.46 14.9999 17.46Z" fill="#091242"/>
<path d="M9.78472 15.1665L3.16626 21.7849L4.01478 22.6334L10.6332 16.015L9.78472 15.1665Z" fill="#091242"/>
<path d="M20.2149 15.1666L19.3663 16.0151L25.9848 22.6335L26.8333 21.785L20.2149 15.1666Z" fill="#091242"/>
</svg>
