<svg width="30" height="30" fill="none" xmlns="http://www.w3.org/2000/svg"><path d="M27 24.6H3c-1.02 0-1.8-.78-1.8-1.8V6.6c0-1.02.78-1.8 1.8-1.8h24c1.02 0 1.8.78 1.8 1.8v16.2c0 1.02-.78 1.8-1.8 1.8ZM3 6c-.36 0-.6.24-.6.6v16.2c0 .36.24.6.6.6h24c.36 0 .6-.24.6-.6V6.6c0-.36-.24-.6-.6-.6H3Z" fill="#091242"/><path d="M15 17.46c-1.26 0-2.46-.48-3.42-1.38l-8.4-8.46.84-.84 8.4 8.46c1.38 1.38 3.72 1.38 5.1 0l8.46-8.46.84.84-8.46 8.46c-.9.9-2.16 1.38-3.36 1.38Zm-5.215-2.294-6.619 6.619.849.848 6.618-6.618-.848-.849Zm10.43.001-.849.848 6.619 6.619.848-.849-6.618-6.618Z" fill="#091242"/></svg>