<svg width="56" height="56" fill="none" xmlns="http://www.w3.org/2000/svg"><circle cx="28" cy="28" r="28" fill="#FF7A00"/><mask id="a" style="mask-type:alpha" maskUnits="userSpaceOnUse" x="16" y="16" width="24" height="24"><path fill="#D9D9D9" d="M16 16h24v24H16z"/></mask><g mask="url(#a)"><path d="M23 36a2.893 2.893 0 0 1-2.125-.875A2.893 2.893 0 0 1 20 33h-2.5l.45-2h2.825a3 3 0 0 1 1-.738A2.915 2.915 0 0 1 23 30c.433 0 .842.087 1.225.262a3 3 0 0 1 1 .738H29.4l2.1-9H20.55l.1-.425c.1-.467.33-.846.688-1.137A1.936 1.936 0 0 1 22.6 20H34l-.925 4H36l3 4-1 5h-2c0 .833-.292 1.542-.875 2.125A2.893 2.893 0 0 1 33 36a2.893 2.893 0 0 1-2.125-.875A2.893 2.893 0 0 1 30 33h-4c0 .833-.292 1.542-.875 2.125A2.893 2.893 0 0 1 23 36Zm8.925-7h4.825l.1-.525L35 26h-2.375l-.7 3Zm-.475-6.825L31.5 22l-2.1 9 .05-.175.85-3.65 1.15-5Zm-14.95 7.15.5-2h5.5l-.5 2h-5.5Zm2-3.65.5-2h6.5l-.5 2h-6.5ZM23 34c.283 0 .52-.096.712-.288A.968.968 0 0 0 24 33a.968.968 0 0 0-.288-.712A.968.968 0 0 0 23 32a.968.968 0 0 0-.712.288A.968.968 0 0 0 22 33c0 .283.096.52.288.712A.965.965 0 0 0 23 34Zm10 0c.283 0 .52-.096.712-.288A.968.968 0 0 0 34 33a.968.968 0 0 0-.288-.712A.968.968 0 0 0 33 32a.968.968 0 0 0-.712.288A.968.968 0 0 0 32 33c0 .283.096.52.288.712A.965.965 0 0 0 33 34Z" fill="#fff"/></g></svg>