<svg width="56" height="56" fill="none" xmlns="http://www.w3.org/2000/svg"><circle cx="28" cy="28" r="28" fill="#FF7A00"/><mask id="a" style="mask-type:alpha" maskUnits="userSpaceOnUse" x="16" y="16" width="24" height="24"><path fill="#D9D9D9" d="M16 16h24v24H16z"/></mask><g mask="url(#a)"><path d="M28 38.5a2.893 2.893 0 0 1-2.125-.875A2.893 2.893 0 0 1 25 35.5c0-.65.188-1.233.563-1.75A2.91 2.91 0 0 1 27 32.675V30.85a3.742 3.742 0 0 1-.525-.238 1.988 1.988 0 0 1-.45-.337l-1.575.925c.017.083.03.17.038.262s.012.188.012.288c0 .833-.292 1.542-.875 2.125a2.893 2.893 0 0 1-2.125.875 2.893 2.893 0 0 1-2.125-.875 2.893 2.893 0 0 1-.875-2.125c0-.833.292-1.542.875-2.125a2.893 2.893 0 0 1 2.125-.875c.383 0 .742.063 1.075.188.333.125.633.304.9.537l1.55-.9a2.425 2.425 0 0 1-.037-.275 3.625 3.625 0 0 1 0-.588c.008-.091.02-.179.037-.262l-1.55-.925a2.905 2.905 0 0 1-.9.538 3.037 3.037 0 0 1-1.075.187 2.893 2.893 0 0 1-2.125-.875 2.893 2.893 0 0 1-.875-2.125c0-.833.292-1.542.875-2.125a2.893 2.893 0 0 1 2.125-.875c.833 0 1.542.292 2.125.875s.875 1.292.875 2.125c0 .1-.004.2-.012.3-.009.1-.021.192-.038.275l1.575.9a1.72 1.72 0 0 1 .45-.325 5.18 5.18 0 0 1 .525-.225V23.35a2.886 2.886 0 0 1-1.438-1.088A2.96 2.96 0 0 1 25 20.5c0-.833.292-1.542.875-2.125A2.893 2.893 0 0 1 28 17.5c.833 0 1.542.292 2.125.875S31 19.667 31 20.5a2.96 2.96 0 0 1-.563 1.762A2.886 2.886 0 0 1 29 23.35v1.825c.183.067.354.146.512.238.159.091.305.204.438.337l1.6-.95a2.467 2.467 0 0 1-.038-.262 3.19 3.19 0 0 1-.012-.288c0-.833.292-1.542.875-2.125a2.893 2.893 0 0 1 2.125-.875c.833 0 1.542.292 2.125.875s.875 1.292.875 2.125-.292 1.542-.875 2.125a2.893 2.893 0 0 1-2.125.875c-.383 0-.737-.063-1.063-.188a2.944 2.944 0 0 1-.887-.537l-1.625.95a2.917 2.917 0 0 1 0 1.075l1.625.925c.267-.233.563-.413.888-.538a2.934 2.934 0 0 1 1.062-.187c.833 0 1.542.292 2.125.875s.875 1.292.875 2.125-.292 1.542-.875 2.125a2.893 2.893 0 0 1-2.125.875 2.893 2.893 0 0 1-2.125-.875 2.893 2.893 0 0 1-.875-2.125 2.578 2.578 0 0 1 .05-.55l-1.6-.925c-.133.133-.28.242-.438.325a4.222 4.222 0 0 1-.512.225v1.85a2.91 2.91 0 0 1 1.438 1.075c.375.517.562 1.1.562 1.75 0 .833-.292 1.542-.875 2.125A2.893 2.893 0 0 1 28 38.5Zm0-2c.283 0 .52-.096.712-.288A.968.968 0 0 0 29 35.5a.968.968 0 0 0-.288-.712A.968.968 0 0 0 28 34.5a.968.968 0 0 0-.712.288.968.968 0 0 0-.288.712c0 .283.096.52.288.712A.965.965 0 0 0 28 36.5Zm-6.5-3.75c.283 0 .52-.096.712-.288a.968.968 0 0 0 .288-.712.968.968 0 0 0-.288-.712.968.968 0 0 0-.712-.288.968.968 0 0 0-.712.288.968.968 0 0 0-.288.712c0 .283.096.52.288.712a.965.965 0 0 0 .712.288Zm13 0c.283 0 .52-.096.712-.288a.968.968 0 0 0 .288-.712.968.968 0 0 0-.288-.712.968.968 0 0 0-.712-.288.968.968 0 0 0-.712.288.968.968 0 0 0-.288.712c0 .283.096.52.288.712a.965.965 0 0 0 .712.288ZM28 29c.283 0 .52-.096.712-.288A.968.968 0 0 0 29 28a.968.968 0 0 0-.288-.712A.968.968 0 0 0 28 27a.968.968 0 0 0-.712.288A.968.968 0 0 0 27 28c0 .283.096.52.288.712A.965.965 0 0 0 28 29Zm-6.5-3.75c.283 0 .52-.096.712-.288a.968.968 0 0 0 .288-.712.968.968 0 0 0-.288-.712.968.968 0 0 0-.712-.288.968.968 0 0 0-.712.288.968.968 0 0 0-.288.712c0 .283.096.52.288.712a.965.965 0 0 0 .712.288Zm13 0c.283 0 .52-.096.712-.288a.968.968 0 0 0 .288-.712.968.968 0 0 0-.288-.712.968.968 0 0 0-.712-.288.968.968 0 0 0-.712.288.968.968 0 0 0-.288.712c0 .283.096.52.288.712a.965.965 0 0 0 .712.288ZM28 21.5c.283 0 .52-.096.712-.288A.968.968 0 0 0 29 20.5a.968.968 0 0 0-.288-.712A.968.968 0 0 0 28 19.5a.968.968 0 0 0-.712.288.968.968 0 0 0-.288.712c0 .283.096.52.288.712A.965.965 0 0 0 28 21.5Z" fill="#fff"/></g></svg>